<mxfile host="app.diagrams.net" agent="Mozilla/5.0 (Macintosh; Intel Mac OS X 10_15_7) AppleWebKit/537.36 (KHTML, like Gecko) Chrome/130.0.0.0 Safari/537.36" version="24.8.3">
  <diagram id="R2lEEEUBdFMjLlhIrx00" name="Page-1">
    <mxGraphModel dx="880" dy="399" grid="1" gridSize="10" guides="1" tooltips="1" connect="1" arrows="1" fold="1" page="1" pageScale="1" pageWidth="850" pageHeight="1100" math="0" shadow="0" extFonts="Permanent Marker^https://fonts.googleapis.com/css?family=Permanent+Marker">
      <root>
        <mxCell id="0" />
        <mxCell id="1" parent="0" />
        <mxCell id="jbMghnIWZ9p5l0tNAsyb-1" value="Facilities" style="shape=table;startSize=25;container=1;collapsible=0;childLayout=tableLayout;fixedRows=1;rowLines=1;fontStyle=1;align=center;resizeLast=1;sketch=1;hachureGap=4;jiggle=2;curveFitting=1;fontFamily=Architects Daughter;fontSource=https%3A%2F%2Ffonts.googleapis.com%2Fcss%3Ffamily%3DArchitects%2BDaughter;" vertex="1" parent="1">
          <mxGeometry x="149" y="370" width="171" height="201" as="geometry" />
        </mxCell>
        <mxCell id="jbMghnIWZ9p5l0tNAsyb-2" style="shape=tableRow;horizontal=0;startSize=0;swimlaneHead=0;swimlaneBody=0;fillColor=none;collapsible=0;dropTarget=0;points=[[0,0.5],[1,0.5]];portConstraint=eastwest;top=0;left=0;right=0;bottom=0;sketch=1;hachureGap=4;jiggle=2;curveFitting=1;fontFamily=Architects Daughter;fontSource=https%3A%2F%2Ffonts.googleapis.com%2Fcss%3Ffamily%3DArchitects%2BDaughter;" vertex="1" parent="jbMghnIWZ9p5l0tNAsyb-1">
          <mxGeometry y="25" width="171" height="22" as="geometry" />
        </mxCell>
        <mxCell id="jbMghnIWZ9p5l0tNAsyb-3" value="int" style="shape=partialRectangle;connectable=0;fillColor=none;top=0;left=0;bottom=0;right=0;align=left;spacingLeft=2;overflow=hidden;fontSize=11;sketch=1;hachureGap=4;jiggle=2;curveFitting=1;fontFamily=Architects Daughter;fontSource=https%3A%2F%2Ffonts.googleapis.com%2Fcss%3Ffamily%3DArchitects%2BDaughter;" vertex="1" parent="jbMghnIWZ9p5l0tNAsyb-2">
          <mxGeometry width="42" height="22" as="geometry">
            <mxRectangle width="42" height="22" as="alternateBounds" />
          </mxGeometry>
        </mxCell>
        <mxCell id="jbMghnIWZ9p5l0tNAsyb-4" value="facility_id" style="shape=partialRectangle;connectable=0;fillColor=none;top=0;left=0;bottom=0;right=0;align=left;spacingLeft=2;overflow=hidden;fontSize=11;sketch=1;hachureGap=4;jiggle=2;curveFitting=1;fontFamily=Architects Daughter;fontSource=https%3A%2F%2Ffonts.googleapis.com%2Fcss%3Ffamily%3DArchitects%2BDaughter;" vertex="1" parent="jbMghnIWZ9p5l0tNAsyb-2">
          <mxGeometry x="42" width="129" height="22" as="geometry">
            <mxRectangle width="129" height="22" as="alternateBounds" />
          </mxGeometry>
        </mxCell>
        <mxCell id="jbMghnIWZ9p5l0tNAsyb-5" style="shape=tableRow;horizontal=0;startSize=0;swimlaneHead=0;swimlaneBody=0;fillColor=none;collapsible=0;dropTarget=0;points=[[0,0.5],[1,0.5]];portConstraint=eastwest;top=0;left=0;right=0;bottom=0;sketch=1;hachureGap=4;jiggle=2;curveFitting=1;fontFamily=Architects Daughter;fontSource=https%3A%2F%2Ffonts.googleapis.com%2Fcss%3Ffamily%3DArchitects%2BDaughter;" vertex="1" parent="jbMghnIWZ9p5l0tNAsyb-1">
          <mxGeometry y="47" width="171" height="22" as="geometry" />
        </mxCell>
        <mxCell id="jbMghnIWZ9p5l0tNAsyb-6" value="string" style="shape=partialRectangle;connectable=0;fillColor=none;top=0;left=0;bottom=0;right=0;align=left;spacingLeft=2;overflow=hidden;fontSize=11;sketch=1;hachureGap=4;jiggle=2;curveFitting=1;fontFamily=Architects Daughter;fontSource=https%3A%2F%2Ffonts.googleapis.com%2Fcss%3Ffamily%3DArchitects%2BDaughter;" vertex="1" parent="jbMghnIWZ9p5l0tNAsyb-5">
          <mxGeometry width="42" height="22" as="geometry">
            <mxRectangle width="42" height="22" as="alternateBounds" />
          </mxGeometry>
        </mxCell>
        <mxCell id="jbMghnIWZ9p5l0tNAsyb-7" value="facility_name" style="shape=partialRectangle;connectable=0;fillColor=none;top=0;left=0;bottom=0;right=0;align=left;spacingLeft=2;overflow=hidden;fontSize=11;sketch=1;hachureGap=4;jiggle=2;curveFitting=1;fontFamily=Architects Daughter;fontSource=https%3A%2F%2Ffonts.googleapis.com%2Fcss%3Ffamily%3DArchitects%2BDaughter;" vertex="1" parent="jbMghnIWZ9p5l0tNAsyb-5">
          <mxGeometry x="42" width="129" height="22" as="geometry">
            <mxRectangle width="129" height="22" as="alternateBounds" />
          </mxGeometry>
        </mxCell>
        <mxCell id="jbMghnIWZ9p5l0tNAsyb-8" style="shape=tableRow;horizontal=0;startSize=0;swimlaneHead=0;swimlaneBody=0;fillColor=none;collapsible=0;dropTarget=0;points=[[0,0.5],[1,0.5]];portConstraint=eastwest;top=0;left=0;right=0;bottom=0;sketch=1;hachureGap=4;jiggle=2;curveFitting=1;fontFamily=Architects Daughter;fontSource=https%3A%2F%2Ffonts.googleapis.com%2Fcss%3Ffamily%3DArchitects%2BDaughter;" vertex="1" parent="jbMghnIWZ9p5l0tNAsyb-1">
          <mxGeometry y="69" width="171" height="22" as="geometry" />
        </mxCell>
        <mxCell id="jbMghnIWZ9p5l0tNAsyb-9" value="string" style="shape=partialRectangle;connectable=0;fillColor=none;top=0;left=0;bottom=0;right=0;align=left;spacingLeft=2;overflow=hidden;fontSize=11;sketch=1;hachureGap=4;jiggle=2;curveFitting=1;fontFamily=Architects Daughter;fontSource=https%3A%2F%2Ffonts.googleapis.com%2Fcss%3Ffamily%3DArchitects%2BDaughter;" vertex="1" parent="jbMghnIWZ9p5l0tNAsyb-8">
          <mxGeometry width="42" height="22" as="geometry">
            <mxRectangle width="42" height="22" as="alternateBounds" />
          </mxGeometry>
        </mxCell>
        <mxCell id="jbMghnIWZ9p5l0tNAsyb-10" value="facility_type" style="shape=partialRectangle;connectable=0;fillColor=none;top=0;left=0;bottom=0;right=0;align=left;spacingLeft=2;overflow=hidden;fontSize=11;sketch=1;hachureGap=4;jiggle=2;curveFitting=1;fontFamily=Architects Daughter;fontSource=https%3A%2F%2Ffonts.googleapis.com%2Fcss%3Ffamily%3DArchitects%2BDaughter;" vertex="1" parent="jbMghnIWZ9p5l0tNAsyb-8">
          <mxGeometry x="42" width="129" height="22" as="geometry">
            <mxRectangle width="129" height="22" as="alternateBounds" />
          </mxGeometry>
        </mxCell>
        <mxCell id="jbMghnIWZ9p5l0tNAsyb-11" style="shape=tableRow;horizontal=0;startSize=0;swimlaneHead=0;swimlaneBody=0;fillColor=none;collapsible=0;dropTarget=0;points=[[0,0.5],[1,0.5]];portConstraint=eastwest;top=0;left=0;right=0;bottom=0;sketch=1;hachureGap=4;jiggle=2;curveFitting=1;fontFamily=Architects Daughter;fontSource=https%3A%2F%2Ffonts.googleapis.com%2Fcss%3Ffamily%3DArchitects%2BDaughter;" vertex="1" parent="jbMghnIWZ9p5l0tNAsyb-1">
          <mxGeometry y="91" width="171" height="22" as="geometry" />
        </mxCell>
        <mxCell id="jbMghnIWZ9p5l0tNAsyb-12" value="string" style="shape=partialRectangle;connectable=0;fillColor=none;top=0;left=0;bottom=0;right=0;align=left;spacingLeft=2;overflow=hidden;fontSize=11;sketch=1;hachureGap=4;jiggle=2;curveFitting=1;fontFamily=Architects Daughter;fontSource=https%3A%2F%2Ffonts.googleapis.com%2Fcss%3Ffamily%3DArchitects%2BDaughter;" vertex="1" parent="jbMghnIWZ9p5l0tNAsyb-11">
          <mxGeometry width="42" height="22" as="geometry">
            <mxRectangle width="42" height="22" as="alternateBounds" />
          </mxGeometry>
        </mxCell>
        <mxCell id="jbMghnIWZ9p5l0tNAsyb-13" value="location_district" style="shape=partialRectangle;connectable=0;fillColor=none;top=0;left=0;bottom=0;right=0;align=left;spacingLeft=2;overflow=hidden;fontSize=11;sketch=1;hachureGap=4;jiggle=2;curveFitting=1;fontFamily=Architects Daughter;fontSource=https%3A%2F%2Ffonts.googleapis.com%2Fcss%3Ffamily%3DArchitects%2BDaughter;" vertex="1" parent="jbMghnIWZ9p5l0tNAsyb-11">
          <mxGeometry x="42" width="129" height="22" as="geometry">
            <mxRectangle width="129" height="22" as="alternateBounds" />
          </mxGeometry>
        </mxCell>
        <mxCell id="jbMghnIWZ9p5l0tNAsyb-14" style="shape=tableRow;horizontal=0;startSize=0;swimlaneHead=0;swimlaneBody=0;fillColor=none;collapsible=0;dropTarget=0;points=[[0,0.5],[1,0.5]];portConstraint=eastwest;top=0;left=0;right=0;bottom=0;sketch=1;hachureGap=4;jiggle=2;curveFitting=1;fontFamily=Architects Daughter;fontSource=https%3A%2F%2Ffonts.googleapis.com%2Fcss%3Ffamily%3DArchitects%2BDaughter;" vertex="1" parent="jbMghnIWZ9p5l0tNAsyb-1">
          <mxGeometry y="113" width="171" height="22" as="geometry" />
        </mxCell>
        <mxCell id="jbMghnIWZ9p5l0tNAsyb-15" value="int" style="shape=partialRectangle;connectable=0;fillColor=none;top=0;left=0;bottom=0;right=0;align=left;spacingLeft=2;overflow=hidden;fontSize=11;sketch=1;hachureGap=4;jiggle=2;curveFitting=1;fontFamily=Architects Daughter;fontSource=https%3A%2F%2Ffonts.googleapis.com%2Fcss%3Ffamily%3DArchitects%2BDaughter;" vertex="1" parent="jbMghnIWZ9p5l0tNAsyb-14">
          <mxGeometry width="42" height="22" as="geometry">
            <mxRectangle width="42" height="22" as="alternateBounds" />
          </mxGeometry>
        </mxCell>
        <mxCell id="jbMghnIWZ9p5l0tNAsyb-16" value="beds_available" style="shape=partialRectangle;connectable=0;fillColor=none;top=0;left=0;bottom=0;right=0;align=left;spacingLeft=2;overflow=hidden;fontSize=11;sketch=1;hachureGap=4;jiggle=2;curveFitting=1;fontFamily=Architects Daughter;fontSource=https%3A%2F%2Ffonts.googleapis.com%2Fcss%3Ffamily%3DArchitects%2BDaughter;" vertex="1" parent="jbMghnIWZ9p5l0tNAsyb-14">
          <mxGeometry x="42" width="129" height="22" as="geometry">
            <mxRectangle width="129" height="22" as="alternateBounds" />
          </mxGeometry>
        </mxCell>
        <mxCell id="jbMghnIWZ9p5l0tNAsyb-17" style="shape=tableRow;horizontal=0;startSize=0;swimlaneHead=0;swimlaneBody=0;fillColor=none;collapsible=0;dropTarget=0;points=[[0,0.5],[1,0.5]];portConstraint=eastwest;top=0;left=0;right=0;bottom=0;sketch=1;hachureGap=4;jiggle=2;curveFitting=1;fontFamily=Architects Daughter;fontSource=https%3A%2F%2Ffonts.googleapis.com%2Fcss%3Ffamily%3DArchitects%2BDaughter;" vertex="1" parent="jbMghnIWZ9p5l0tNAsyb-1">
          <mxGeometry y="135" width="171" height="22" as="geometry" />
        </mxCell>
        <mxCell id="jbMghnIWZ9p5l0tNAsyb-18" value="boolean" style="shape=partialRectangle;connectable=0;fillColor=none;top=0;left=0;bottom=0;right=0;align=left;spacingLeft=2;overflow=hidden;fontSize=11;sketch=1;hachureGap=4;jiggle=2;curveFitting=1;fontFamily=Architects Daughter;fontSource=https%3A%2F%2Ffonts.googleapis.com%2Fcss%3Ffamily%3DArchitects%2BDaughter;" vertex="1" parent="jbMghnIWZ9p5l0tNAsyb-17">
          <mxGeometry width="42" height="22" as="geometry">
            <mxRectangle width="42" height="22" as="alternateBounds" />
          </mxGeometry>
        </mxCell>
        <mxCell id="jbMghnIWZ9p5l0tNAsyb-19" value="has_emergency_unit" style="shape=partialRectangle;connectable=0;fillColor=none;top=0;left=0;bottom=0;right=0;align=left;spacingLeft=2;overflow=hidden;fontSize=11;sketch=1;hachureGap=4;jiggle=2;curveFitting=1;fontFamily=Architects Daughter;fontSource=https%3A%2F%2Ffonts.googleapis.com%2Fcss%3Ffamily%3DArchitects%2BDaughter;" vertex="1" parent="jbMghnIWZ9p5l0tNAsyb-17">
          <mxGeometry x="42" width="129" height="22" as="geometry">
            <mxRectangle width="129" height="22" as="alternateBounds" />
          </mxGeometry>
        </mxCell>
        <mxCell id="jbMghnIWZ9p5l0tNAsyb-20" style="shape=tableRow;horizontal=0;startSize=0;swimlaneHead=0;swimlaneBody=0;fillColor=none;collapsible=0;dropTarget=0;points=[[0,0.5],[1,0.5]];portConstraint=eastwest;top=0;left=0;right=0;bottom=0;sketch=1;hachureGap=4;jiggle=2;curveFitting=1;fontFamily=Architects Daughter;fontSource=https%3A%2F%2Ffonts.googleapis.com%2Fcss%3Ffamily%3DArchitects%2BDaughter;" vertex="1" parent="jbMghnIWZ9p5l0tNAsyb-1">
          <mxGeometry y="157" width="171" height="22" as="geometry" />
        </mxCell>
        <mxCell id="jbMghnIWZ9p5l0tNAsyb-21" value="boolean" style="shape=partialRectangle;connectable=0;fillColor=none;top=0;left=0;bottom=0;right=0;align=left;spacingLeft=2;overflow=hidden;fontSize=11;sketch=1;hachureGap=4;jiggle=2;curveFitting=1;fontFamily=Architects Daughter;fontSource=https%3A%2F%2Ffonts.googleapis.com%2Fcss%3Ffamily%3DArchitects%2BDaughter;" vertex="1" parent="jbMghnIWZ9p5l0tNAsyb-20">
          <mxGeometry width="42" height="22" as="geometry">
            <mxRectangle width="42" height="22" as="alternateBounds" />
          </mxGeometry>
        </mxCell>
        <mxCell id="jbMghnIWZ9p5l0tNAsyb-22" value="has_maternity_ward" style="shape=partialRectangle;connectable=0;fillColor=none;top=0;left=0;bottom=0;right=0;align=left;spacingLeft=2;overflow=hidden;fontSize=11;sketch=1;hachureGap=4;jiggle=2;curveFitting=1;fontFamily=Architects Daughter;fontSource=https%3A%2F%2Ffonts.googleapis.com%2Fcss%3Ffamily%3DArchitects%2BDaughter;" vertex="1" parent="jbMghnIWZ9p5l0tNAsyb-20">
          <mxGeometry x="42" width="129" height="22" as="geometry">
            <mxRectangle width="129" height="22" as="alternateBounds" />
          </mxGeometry>
        </mxCell>
        <mxCell id="jbMghnIWZ9p5l0tNAsyb-23" style="shape=tableRow;horizontal=0;startSize=0;swimlaneHead=0;swimlaneBody=0;fillColor=none;collapsible=0;dropTarget=0;points=[[0,0.5],[1,0.5]];portConstraint=eastwest;top=0;left=0;right=0;bottom=0;sketch=1;hachureGap=4;jiggle=2;curveFitting=1;fontFamily=Architects Daughter;fontSource=https%3A%2F%2Ffonts.googleapis.com%2Fcss%3Ffamily%3DArchitects%2BDaughter;" vertex="1" parent="jbMghnIWZ9p5l0tNAsyb-1">
          <mxGeometry y="179" width="171" height="22" as="geometry" />
        </mxCell>
        <mxCell id="jbMghnIWZ9p5l0tNAsyb-24" value="date" style="shape=partialRectangle;connectable=0;fillColor=none;top=0;left=0;bottom=0;right=0;align=left;spacingLeft=2;overflow=hidden;fontSize=11;sketch=1;hachureGap=4;jiggle=2;curveFitting=1;fontFamily=Architects Daughter;fontSource=https%3A%2F%2Ffonts.googleapis.com%2Fcss%3Ffamily%3DArchitects%2BDaughter;" vertex="1" parent="jbMghnIWZ9p5l0tNAsyb-23">
          <mxGeometry width="42" height="22" as="geometry">
            <mxRectangle width="42" height="22" as="alternateBounds" />
          </mxGeometry>
        </mxCell>
        <mxCell id="jbMghnIWZ9p5l0tNAsyb-25" value="establishment_date" style="shape=partialRectangle;connectable=0;fillColor=none;top=0;left=0;bottom=0;right=0;align=left;spacingLeft=2;overflow=hidden;fontSize=11;sketch=1;hachureGap=4;jiggle=2;curveFitting=1;fontFamily=Architects Daughter;fontSource=https%3A%2F%2Ffonts.googleapis.com%2Fcss%3Ffamily%3DArchitects%2BDaughter;" vertex="1" parent="jbMghnIWZ9p5l0tNAsyb-23">
          <mxGeometry x="42" width="129" height="22" as="geometry">
            <mxRectangle width="129" height="22" as="alternateBounds" />
          </mxGeometry>
        </mxCell>
        <mxCell id="jbMghnIWZ9p5l0tNAsyb-26" value="Healthcare_Providers" style="shape=table;startSize=25;container=1;collapsible=0;childLayout=tableLayout;fixedRows=1;rowLines=1;fontStyle=1;align=center;resizeLast=1;sketch=1;hachureGap=4;jiggle=2;curveFitting=1;fontFamily=Architects Daughter;fontSource=https%3A%2F%2Ffonts.googleapis.com%2Fcss%3Ffamily%3DArchitects%2BDaughter;" vertex="1" parent="1">
          <mxGeometry x="20" y="682" width="158" height="157" as="geometry" />
        </mxCell>
        <mxCell id="jbMghnIWZ9p5l0tNAsyb-27" style="shape=tableRow;horizontal=0;startSize=0;swimlaneHead=0;swimlaneBody=0;fillColor=none;collapsible=0;dropTarget=0;points=[[0,0.5],[1,0.5]];portConstraint=eastwest;top=0;left=0;right=0;bottom=0;sketch=1;hachureGap=4;jiggle=2;curveFitting=1;fontFamily=Architects Daughter;fontSource=https%3A%2F%2Ffonts.googleapis.com%2Fcss%3Ffamily%3DArchitects%2BDaughter;" vertex="1" parent="jbMghnIWZ9p5l0tNAsyb-26">
          <mxGeometry y="25" width="158" height="22" as="geometry" />
        </mxCell>
        <mxCell id="jbMghnIWZ9p5l0tNAsyb-28" value="int" style="shape=partialRectangle;connectable=0;fillColor=none;top=0;left=0;bottom=0;right=0;align=left;spacingLeft=2;overflow=hidden;fontSize=11;sketch=1;hachureGap=4;jiggle=2;curveFitting=1;fontFamily=Architects Daughter;fontSource=https%3A%2F%2Ffonts.googleapis.com%2Fcss%3Ffamily%3DArchitects%2BDaughter;" vertex="1" parent="jbMghnIWZ9p5l0tNAsyb-27">
          <mxGeometry width="42" height="22" as="geometry">
            <mxRectangle width="42" height="22" as="alternateBounds" />
          </mxGeometry>
        </mxCell>
        <mxCell id="jbMghnIWZ9p5l0tNAsyb-29" value="provider_id" style="shape=partialRectangle;connectable=0;fillColor=none;top=0;left=0;bottom=0;right=0;align=left;spacingLeft=2;overflow=hidden;fontSize=11;sketch=1;hachureGap=4;jiggle=2;curveFitting=1;fontFamily=Architects Daughter;fontSource=https%3A%2F%2Ffonts.googleapis.com%2Fcss%3Ffamily%3DArchitects%2BDaughter;" vertex="1" parent="jbMghnIWZ9p5l0tNAsyb-27">
          <mxGeometry x="42" width="116" height="22" as="geometry">
            <mxRectangle width="116" height="22" as="alternateBounds" />
          </mxGeometry>
        </mxCell>
        <mxCell id="jbMghnIWZ9p5l0tNAsyb-30" style="shape=tableRow;horizontal=0;startSize=0;swimlaneHead=0;swimlaneBody=0;fillColor=none;collapsible=0;dropTarget=0;points=[[0,0.5],[1,0.5]];portConstraint=eastwest;top=0;left=0;right=0;bottom=0;sketch=1;hachureGap=4;jiggle=2;curveFitting=1;fontFamily=Architects Daughter;fontSource=https%3A%2F%2Ffonts.googleapis.com%2Fcss%3Ffamily%3DArchitects%2BDaughter;" vertex="1" parent="jbMghnIWZ9p5l0tNAsyb-26">
          <mxGeometry y="47" width="158" height="22" as="geometry" />
        </mxCell>
        <mxCell id="jbMghnIWZ9p5l0tNAsyb-31" value="int" style="shape=partialRectangle;connectable=0;fillColor=none;top=0;left=0;bottom=0;right=0;align=left;spacingLeft=2;overflow=hidden;fontSize=11;sketch=1;hachureGap=4;jiggle=2;curveFitting=1;fontFamily=Architects Daughter;fontSource=https%3A%2F%2Ffonts.googleapis.com%2Fcss%3Ffamily%3DArchitects%2BDaughter;" vertex="1" parent="jbMghnIWZ9p5l0tNAsyb-30">
          <mxGeometry width="42" height="22" as="geometry">
            <mxRectangle width="42" height="22" as="alternateBounds" />
          </mxGeometry>
        </mxCell>
        <mxCell id="jbMghnIWZ9p5l0tNAsyb-32" value="facility_id" style="shape=partialRectangle;connectable=0;fillColor=none;top=0;left=0;bottom=0;right=0;align=left;spacingLeft=2;overflow=hidden;fontSize=11;sketch=1;hachureGap=4;jiggle=2;curveFitting=1;fontFamily=Architects Daughter;fontSource=https%3A%2F%2Ffonts.googleapis.com%2Fcss%3Ffamily%3DArchitects%2BDaughter;" vertex="1" parent="jbMghnIWZ9p5l0tNAsyb-30">
          <mxGeometry x="42" width="116" height="22" as="geometry">
            <mxRectangle width="116" height="22" as="alternateBounds" />
          </mxGeometry>
        </mxCell>
        <mxCell id="jbMghnIWZ9p5l0tNAsyb-33" style="shape=tableRow;horizontal=0;startSize=0;swimlaneHead=0;swimlaneBody=0;fillColor=none;collapsible=0;dropTarget=0;points=[[0,0.5],[1,0.5]];portConstraint=eastwest;top=0;left=0;right=0;bottom=0;sketch=1;hachureGap=4;jiggle=2;curveFitting=1;fontFamily=Architects Daughter;fontSource=https%3A%2F%2Ffonts.googleapis.com%2Fcss%3Ffamily%3DArchitects%2BDaughter;" vertex="1" parent="jbMghnIWZ9p5l0tNAsyb-26">
          <mxGeometry y="69" width="158" height="22" as="geometry" />
        </mxCell>
        <mxCell id="jbMghnIWZ9p5l0tNAsyb-34" value="string" style="shape=partialRectangle;connectable=0;fillColor=none;top=0;left=0;bottom=0;right=0;align=left;spacingLeft=2;overflow=hidden;fontSize=11;sketch=1;hachureGap=4;jiggle=2;curveFitting=1;fontFamily=Architects Daughter;fontSource=https%3A%2F%2Ffonts.googleapis.com%2Fcss%3Ffamily%3DArchitects%2BDaughter;" vertex="1" parent="jbMghnIWZ9p5l0tNAsyb-33">
          <mxGeometry width="42" height="22" as="geometry">
            <mxRectangle width="42" height="22" as="alternateBounds" />
          </mxGeometry>
        </mxCell>
        <mxCell id="jbMghnIWZ9p5l0tNAsyb-35" value="provider_name" style="shape=partialRectangle;connectable=0;fillColor=none;top=0;left=0;bottom=0;right=0;align=left;spacingLeft=2;overflow=hidden;fontSize=11;sketch=1;hachureGap=4;jiggle=2;curveFitting=1;fontFamily=Architects Daughter;fontSource=https%3A%2F%2Ffonts.googleapis.com%2Fcss%3Ffamily%3DArchitects%2BDaughter;" vertex="1" parent="jbMghnIWZ9p5l0tNAsyb-33">
          <mxGeometry x="42" width="116" height="22" as="geometry">
            <mxRectangle width="116" height="22" as="alternateBounds" />
          </mxGeometry>
        </mxCell>
        <mxCell id="jbMghnIWZ9p5l0tNAsyb-36" style="shape=tableRow;horizontal=0;startSize=0;swimlaneHead=0;swimlaneBody=0;fillColor=none;collapsible=0;dropTarget=0;points=[[0,0.5],[1,0.5]];portConstraint=eastwest;top=0;left=0;right=0;bottom=0;sketch=1;hachureGap=4;jiggle=2;curveFitting=1;fontFamily=Architects Daughter;fontSource=https%3A%2F%2Ffonts.googleapis.com%2Fcss%3Ffamily%3DArchitects%2BDaughter;" vertex="1" parent="jbMghnIWZ9p5l0tNAsyb-26">
          <mxGeometry y="91" width="158" height="22" as="geometry" />
        </mxCell>
        <mxCell id="jbMghnIWZ9p5l0tNAsyb-37" value="string" style="shape=partialRectangle;connectable=0;fillColor=none;top=0;left=0;bottom=0;right=0;align=left;spacingLeft=2;overflow=hidden;fontSize=11;sketch=1;hachureGap=4;jiggle=2;curveFitting=1;fontFamily=Architects Daughter;fontSource=https%3A%2F%2Ffonts.googleapis.com%2Fcss%3Ffamily%3DArchitects%2BDaughter;" vertex="1" parent="jbMghnIWZ9p5l0tNAsyb-36">
          <mxGeometry width="42" height="22" as="geometry">
            <mxRectangle width="42" height="22" as="alternateBounds" />
          </mxGeometry>
        </mxCell>
        <mxCell id="jbMghnIWZ9p5l0tNAsyb-38" value="specialization" style="shape=partialRectangle;connectable=0;fillColor=none;top=0;left=0;bottom=0;right=0;align=left;spacingLeft=2;overflow=hidden;fontSize=11;sketch=1;hachureGap=4;jiggle=2;curveFitting=1;fontFamily=Architects Daughter;fontSource=https%3A%2F%2Ffonts.googleapis.com%2Fcss%3Ffamily%3DArchitects%2BDaughter;" vertex="1" parent="jbMghnIWZ9p5l0tNAsyb-36">
          <mxGeometry x="42" width="116" height="22" as="geometry">
            <mxRectangle width="116" height="22" as="alternateBounds" />
          </mxGeometry>
        </mxCell>
        <mxCell id="jbMghnIWZ9p5l0tNAsyb-39" style="shape=tableRow;horizontal=0;startSize=0;swimlaneHead=0;swimlaneBody=0;fillColor=none;collapsible=0;dropTarget=0;points=[[0,0.5],[1,0.5]];portConstraint=eastwest;top=0;left=0;right=0;bottom=0;sketch=1;hachureGap=4;jiggle=2;curveFitting=1;fontFamily=Architects Daughter;fontSource=https%3A%2F%2Ffonts.googleapis.com%2Fcss%3Ffamily%3DArchitects%2BDaughter;" vertex="1" parent="jbMghnIWZ9p5l0tNAsyb-26">
          <mxGeometry y="113" width="158" height="22" as="geometry" />
        </mxCell>
        <mxCell id="jbMghnIWZ9p5l0tNAsyb-40" value="int" style="shape=partialRectangle;connectable=0;fillColor=none;top=0;left=0;bottom=0;right=0;align=left;spacingLeft=2;overflow=hidden;fontSize=11;sketch=1;hachureGap=4;jiggle=2;curveFitting=1;fontFamily=Architects Daughter;fontSource=https%3A%2F%2Ffonts.googleapis.com%2Fcss%3Ffamily%3DArchitects%2BDaughter;" vertex="1" parent="jbMghnIWZ9p5l0tNAsyb-39">
          <mxGeometry width="42" height="22" as="geometry">
            <mxRectangle width="42" height="22" as="alternateBounds" />
          </mxGeometry>
        </mxCell>
        <mxCell id="jbMghnIWZ9p5l0tNAsyb-41" value="years_experience" style="shape=partialRectangle;connectable=0;fillColor=none;top=0;left=0;bottom=0;right=0;align=left;spacingLeft=2;overflow=hidden;fontSize=11;sketch=1;hachureGap=4;jiggle=2;curveFitting=1;fontFamily=Architects Daughter;fontSource=https%3A%2F%2Ffonts.googleapis.com%2Fcss%3Ffamily%3DArchitects%2BDaughter;" vertex="1" parent="jbMghnIWZ9p5l0tNAsyb-39">
          <mxGeometry x="42" width="116" height="22" as="geometry">
            <mxRectangle width="116" height="22" as="alternateBounds" />
          </mxGeometry>
        </mxCell>
        <mxCell id="jbMghnIWZ9p5l0tNAsyb-42" style="shape=tableRow;horizontal=0;startSize=0;swimlaneHead=0;swimlaneBody=0;fillColor=none;collapsible=0;dropTarget=0;points=[[0,0.5],[1,0.5]];portConstraint=eastwest;top=0;left=0;right=0;bottom=0;sketch=1;hachureGap=4;jiggle=2;curveFitting=1;fontFamily=Architects Daughter;fontSource=https%3A%2F%2Ffonts.googleapis.com%2Fcss%3Ffamily%3DArchitects%2BDaughter;" vertex="1" parent="jbMghnIWZ9p5l0tNAsyb-26">
          <mxGeometry y="135" width="158" height="22" as="geometry" />
        </mxCell>
        <mxCell id="jbMghnIWZ9p5l0tNAsyb-43" value="boolean" style="shape=partialRectangle;connectable=0;fillColor=none;top=0;left=0;bottom=0;right=0;align=left;spacingLeft=2;overflow=hidden;fontSize=11;sketch=1;hachureGap=4;jiggle=2;curveFitting=1;fontFamily=Architects Daughter;fontSource=https%3A%2F%2Ffonts.googleapis.com%2Fcss%3Ffamily%3DArchitects%2BDaughter;" vertex="1" parent="jbMghnIWZ9p5l0tNAsyb-42">
          <mxGeometry width="42" height="22" as="geometry">
            <mxRectangle width="42" height="22" as="alternateBounds" />
          </mxGeometry>
        </mxCell>
        <mxCell id="jbMghnIWZ9p5l0tNAsyb-44" value="is_available" style="shape=partialRectangle;connectable=0;fillColor=none;top=0;left=0;bottom=0;right=0;align=left;spacingLeft=2;overflow=hidden;fontSize=11;sketch=1;hachureGap=4;jiggle=2;curveFitting=1;fontFamily=Architects Daughter;fontSource=https%3A%2F%2Ffonts.googleapis.com%2Fcss%3Ffamily%3DArchitects%2BDaughter;" vertex="1" parent="jbMghnIWZ9p5l0tNAsyb-42">
          <mxGeometry x="42" width="116" height="22" as="geometry">
            <mxRectangle width="116" height="22" as="alternateBounds" />
          </mxGeometry>
        </mxCell>
        <mxCell id="jbMghnIWZ9p5l0tNAsyb-45" value="Prenatal_Visits" style="shape=table;startSize=25;container=1;collapsible=0;childLayout=tableLayout;fixedRows=1;rowLines=1;fontStyle=1;align=center;resizeLast=1;sketch=1;hachureGap=4;jiggle=2;curveFitting=1;fontFamily=Architects Daughter;fontSource=https%3A%2F%2Ffonts.googleapis.com%2Fcss%3Ffamily%3DArchitects%2BDaughter;" vertex="1" parent="1">
          <mxGeometry x="217" y="949" width="151" height="201" as="geometry" />
        </mxCell>
        <mxCell id="jbMghnIWZ9p5l0tNAsyb-46" style="shape=tableRow;horizontal=0;startSize=0;swimlaneHead=0;swimlaneBody=0;fillColor=none;collapsible=0;dropTarget=0;points=[[0,0.5],[1,0.5]];portConstraint=eastwest;top=0;left=0;right=0;bottom=0;sketch=1;hachureGap=4;jiggle=2;curveFitting=1;fontFamily=Architects Daughter;fontSource=https%3A%2F%2Ffonts.googleapis.com%2Fcss%3Ffamily%3DArchitects%2BDaughter;" vertex="1" parent="jbMghnIWZ9p5l0tNAsyb-45">
          <mxGeometry y="25" width="151" height="22" as="geometry" />
        </mxCell>
        <mxCell id="jbMghnIWZ9p5l0tNAsyb-47" value="int" style="shape=partialRectangle;connectable=0;fillColor=none;top=0;left=0;bottom=0;right=0;align=left;spacingLeft=2;overflow=hidden;fontSize=11;sketch=1;hachureGap=4;jiggle=2;curveFitting=1;fontFamily=Architects Daughter;fontSource=https%3A%2F%2Ffonts.googleapis.com%2Fcss%3Ffamily%3DArchitects%2BDaughter;" vertex="1" parent="jbMghnIWZ9p5l0tNAsyb-46">
          <mxGeometry width="36" height="22" as="geometry">
            <mxRectangle width="36" height="22" as="alternateBounds" />
          </mxGeometry>
        </mxCell>
        <mxCell id="jbMghnIWZ9p5l0tNAsyb-48" value="visit_id" style="shape=partialRectangle;connectable=0;fillColor=none;top=0;left=0;bottom=0;right=0;align=left;spacingLeft=2;overflow=hidden;fontSize=11;sketch=1;hachureGap=4;jiggle=2;curveFitting=1;fontFamily=Architects Daughter;fontSource=https%3A%2F%2Ffonts.googleapis.com%2Fcss%3Ffamily%3DArchitects%2BDaughter;" vertex="1" parent="jbMghnIWZ9p5l0tNAsyb-46">
          <mxGeometry x="36" width="115" height="22" as="geometry">
            <mxRectangle width="115" height="22" as="alternateBounds" />
          </mxGeometry>
        </mxCell>
        <mxCell id="jbMghnIWZ9p5l0tNAsyb-49" style="shape=tableRow;horizontal=0;startSize=0;swimlaneHead=0;swimlaneBody=0;fillColor=none;collapsible=0;dropTarget=0;points=[[0,0.5],[1,0.5]];portConstraint=eastwest;top=0;left=0;right=0;bottom=0;sketch=1;hachureGap=4;jiggle=2;curveFitting=1;fontFamily=Architects Daughter;fontSource=https%3A%2F%2Ffonts.googleapis.com%2Fcss%3Ffamily%3DArchitects%2BDaughter;" vertex="1" parent="jbMghnIWZ9p5l0tNAsyb-45">
          <mxGeometry y="47" width="151" height="22" as="geometry" />
        </mxCell>
        <mxCell id="jbMghnIWZ9p5l0tNAsyb-50" value="int" style="shape=partialRectangle;connectable=0;fillColor=none;top=0;left=0;bottom=0;right=0;align=left;spacingLeft=2;overflow=hidden;fontSize=11;sketch=1;hachureGap=4;jiggle=2;curveFitting=1;fontFamily=Architects Daughter;fontSource=https%3A%2F%2Ffonts.googleapis.com%2Fcss%3Ffamily%3DArchitects%2BDaughter;" vertex="1" parent="jbMghnIWZ9p5l0tNAsyb-49">
          <mxGeometry width="36" height="22" as="geometry">
            <mxRectangle width="36" height="22" as="alternateBounds" />
          </mxGeometry>
        </mxCell>
        <mxCell id="jbMghnIWZ9p5l0tNAsyb-51" value="pregnancy_id" style="shape=partialRectangle;connectable=0;fillColor=none;top=0;left=0;bottom=0;right=0;align=left;spacingLeft=2;overflow=hidden;fontSize=11;sketch=1;hachureGap=4;jiggle=2;curveFitting=1;fontFamily=Architects Daughter;fontSource=https%3A%2F%2Ffonts.googleapis.com%2Fcss%3Ffamily%3DArchitects%2BDaughter;" vertex="1" parent="jbMghnIWZ9p5l0tNAsyb-49">
          <mxGeometry x="36" width="115" height="22" as="geometry">
            <mxRectangle width="115" height="22" as="alternateBounds" />
          </mxGeometry>
        </mxCell>
        <mxCell id="jbMghnIWZ9p5l0tNAsyb-52" style="shape=tableRow;horizontal=0;startSize=0;swimlaneHead=0;swimlaneBody=0;fillColor=none;collapsible=0;dropTarget=0;points=[[0,0.5],[1,0.5]];portConstraint=eastwest;top=0;left=0;right=0;bottom=0;sketch=1;hachureGap=4;jiggle=2;curveFitting=1;fontFamily=Architects Daughter;fontSource=https%3A%2F%2Ffonts.googleapis.com%2Fcss%3Ffamily%3DArchitects%2BDaughter;" vertex="1" parent="jbMghnIWZ9p5l0tNAsyb-45">
          <mxGeometry y="69" width="151" height="22" as="geometry" />
        </mxCell>
        <mxCell id="jbMghnIWZ9p5l0tNAsyb-53" value="int" style="shape=partialRectangle;connectable=0;fillColor=none;top=0;left=0;bottom=0;right=0;align=left;spacingLeft=2;overflow=hidden;fontSize=11;sketch=1;hachureGap=4;jiggle=2;curveFitting=1;fontFamily=Architects Daughter;fontSource=https%3A%2F%2Ffonts.googleapis.com%2Fcss%3Ffamily%3DArchitects%2BDaughter;" vertex="1" parent="jbMghnIWZ9p5l0tNAsyb-52">
          <mxGeometry width="36" height="22" as="geometry">
            <mxRectangle width="36" height="22" as="alternateBounds" />
          </mxGeometry>
        </mxCell>
        <mxCell id="jbMghnIWZ9p5l0tNAsyb-54" value="facility_id" style="shape=partialRectangle;connectable=0;fillColor=none;top=0;left=0;bottom=0;right=0;align=left;spacingLeft=2;overflow=hidden;fontSize=11;sketch=1;hachureGap=4;jiggle=2;curveFitting=1;fontFamily=Architects Daughter;fontSource=https%3A%2F%2Ffonts.googleapis.com%2Fcss%3Ffamily%3DArchitects%2BDaughter;" vertex="1" parent="jbMghnIWZ9p5l0tNAsyb-52">
          <mxGeometry x="36" width="115" height="22" as="geometry">
            <mxRectangle width="115" height="22" as="alternateBounds" />
          </mxGeometry>
        </mxCell>
        <mxCell id="jbMghnIWZ9p5l0tNAsyb-55" style="shape=tableRow;horizontal=0;startSize=0;swimlaneHead=0;swimlaneBody=0;fillColor=none;collapsible=0;dropTarget=0;points=[[0,0.5],[1,0.5]];portConstraint=eastwest;top=0;left=0;right=0;bottom=0;sketch=1;hachureGap=4;jiggle=2;curveFitting=1;fontFamily=Architects Daughter;fontSource=https%3A%2F%2Ffonts.googleapis.com%2Fcss%3Ffamily%3DArchitects%2BDaughter;" vertex="1" parent="jbMghnIWZ9p5l0tNAsyb-45">
          <mxGeometry y="91" width="151" height="22" as="geometry" />
        </mxCell>
        <mxCell id="jbMghnIWZ9p5l0tNAsyb-56" value="int" style="shape=partialRectangle;connectable=0;fillColor=none;top=0;left=0;bottom=0;right=0;align=left;spacingLeft=2;overflow=hidden;fontSize=11;sketch=1;hachureGap=4;jiggle=2;curveFitting=1;fontFamily=Architects Daughter;fontSource=https%3A%2F%2Ffonts.googleapis.com%2Fcss%3Ffamily%3DArchitects%2BDaughter;" vertex="1" parent="jbMghnIWZ9p5l0tNAsyb-55">
          <mxGeometry width="36" height="22" as="geometry">
            <mxRectangle width="36" height="22" as="alternateBounds" />
          </mxGeometry>
        </mxCell>
        <mxCell id="jbMghnIWZ9p5l0tNAsyb-57" value="provider_id" style="shape=partialRectangle;connectable=0;fillColor=none;top=0;left=0;bottom=0;right=0;align=left;spacingLeft=2;overflow=hidden;fontSize=11;sketch=1;hachureGap=4;jiggle=2;curveFitting=1;fontFamily=Architects Daughter;fontSource=https%3A%2F%2Ffonts.googleapis.com%2Fcss%3Ffamily%3DArchitects%2BDaughter;" vertex="1" parent="jbMghnIWZ9p5l0tNAsyb-55">
          <mxGeometry x="36" width="115" height="22" as="geometry">
            <mxRectangle width="115" height="22" as="alternateBounds" />
          </mxGeometry>
        </mxCell>
        <mxCell id="jbMghnIWZ9p5l0tNAsyb-58" style="shape=tableRow;horizontal=0;startSize=0;swimlaneHead=0;swimlaneBody=0;fillColor=none;collapsible=0;dropTarget=0;points=[[0,0.5],[1,0.5]];portConstraint=eastwest;top=0;left=0;right=0;bottom=0;sketch=1;hachureGap=4;jiggle=2;curveFitting=1;fontFamily=Architects Daughter;fontSource=https%3A%2F%2Ffonts.googleapis.com%2Fcss%3Ffamily%3DArchitects%2BDaughter;" vertex="1" parent="jbMghnIWZ9p5l0tNAsyb-45">
          <mxGeometry y="113" width="151" height="22" as="geometry" />
        </mxCell>
        <mxCell id="jbMghnIWZ9p5l0tNAsyb-59" value="date" style="shape=partialRectangle;connectable=0;fillColor=none;top=0;left=0;bottom=0;right=0;align=left;spacingLeft=2;overflow=hidden;fontSize=11;sketch=1;hachureGap=4;jiggle=2;curveFitting=1;fontFamily=Architects Daughter;fontSource=https%3A%2F%2Ffonts.googleapis.com%2Fcss%3Ffamily%3DArchitects%2BDaughter;" vertex="1" parent="jbMghnIWZ9p5l0tNAsyb-58">
          <mxGeometry width="36" height="22" as="geometry">
            <mxRectangle width="36" height="22" as="alternateBounds" />
          </mxGeometry>
        </mxCell>
        <mxCell id="jbMghnIWZ9p5l0tNAsyb-60" value="visit_date" style="shape=partialRectangle;connectable=0;fillColor=none;top=0;left=0;bottom=0;right=0;align=left;spacingLeft=2;overflow=hidden;fontSize=11;sketch=1;hachureGap=4;jiggle=2;curveFitting=1;fontFamily=Architects Daughter;fontSource=https%3A%2F%2Ffonts.googleapis.com%2Fcss%3Ffamily%3DArchitects%2BDaughter;" vertex="1" parent="jbMghnIWZ9p5l0tNAsyb-58">
          <mxGeometry x="36" width="115" height="22" as="geometry">
            <mxRectangle width="115" height="22" as="alternateBounds" />
          </mxGeometry>
        </mxCell>
        <mxCell id="jbMghnIWZ9p5l0tNAsyb-61" style="shape=tableRow;horizontal=0;startSize=0;swimlaneHead=0;swimlaneBody=0;fillColor=none;collapsible=0;dropTarget=0;points=[[0,0.5],[1,0.5]];portConstraint=eastwest;top=0;left=0;right=0;bottom=0;sketch=1;hachureGap=4;jiggle=2;curveFitting=1;fontFamily=Architects Daughter;fontSource=https%3A%2F%2Ffonts.googleapis.com%2Fcss%3Ffamily%3DArchitects%2BDaughter;" vertex="1" parent="jbMghnIWZ9p5l0tNAsyb-45">
          <mxGeometry y="135" width="151" height="22" as="geometry" />
        </mxCell>
        <mxCell id="jbMghnIWZ9p5l0tNAsyb-62" value="string" style="shape=partialRectangle;connectable=0;fillColor=none;top=0;left=0;bottom=0;right=0;align=left;spacingLeft=2;overflow=hidden;fontSize=11;sketch=1;hachureGap=4;jiggle=2;curveFitting=1;fontFamily=Architects Daughter;fontSource=https%3A%2F%2Ffonts.googleapis.com%2Fcss%3Ffamily%3DArchitects%2BDaughter;" vertex="1" parent="jbMghnIWZ9p5l0tNAsyb-61">
          <mxGeometry width="36" height="22" as="geometry">
            <mxRectangle width="36" height="22" as="alternateBounds" />
          </mxGeometry>
        </mxCell>
        <mxCell id="jbMghnIWZ9p5l0tNAsyb-63" value="visit_type" style="shape=partialRectangle;connectable=0;fillColor=none;top=0;left=0;bottom=0;right=0;align=left;spacingLeft=2;overflow=hidden;fontSize=11;sketch=1;hachureGap=4;jiggle=2;curveFitting=1;fontFamily=Architects Daughter;fontSource=https%3A%2F%2Ffonts.googleapis.com%2Fcss%3Ffamily%3DArchitects%2BDaughter;" vertex="1" parent="jbMghnIWZ9p5l0tNAsyb-61">
          <mxGeometry x="36" width="115" height="22" as="geometry">
            <mxRectangle width="115" height="22" as="alternateBounds" />
          </mxGeometry>
        </mxCell>
        <mxCell id="jbMghnIWZ9p5l0tNAsyb-64" style="shape=tableRow;horizontal=0;startSize=0;swimlaneHead=0;swimlaneBody=0;fillColor=none;collapsible=0;dropTarget=0;points=[[0,0.5],[1,0.5]];portConstraint=eastwest;top=0;left=0;right=0;bottom=0;sketch=1;hachureGap=4;jiggle=2;curveFitting=1;fontFamily=Architects Daughter;fontSource=https%3A%2F%2Ffonts.googleapis.com%2Fcss%3Ffamily%3DArchitects%2BDaughter;" vertex="1" parent="jbMghnIWZ9p5l0tNAsyb-45">
          <mxGeometry y="157" width="151" height="22" as="geometry" />
        </mxCell>
        <mxCell id="jbMghnIWZ9p5l0tNAsyb-65" value="string" style="shape=partialRectangle;connectable=0;fillColor=none;top=0;left=0;bottom=0;right=0;align=left;spacingLeft=2;overflow=hidden;fontSize=11;sketch=1;hachureGap=4;jiggle=2;curveFitting=1;fontFamily=Architects Daughter;fontSource=https%3A%2F%2Ffonts.googleapis.com%2Fcss%3Ffamily%3DArchitects%2BDaughter;" vertex="1" parent="jbMghnIWZ9p5l0tNAsyb-64">
          <mxGeometry width="36" height="22" as="geometry">
            <mxRectangle width="36" height="22" as="alternateBounds" />
          </mxGeometry>
        </mxCell>
        <mxCell id="jbMghnIWZ9p5l0tNAsyb-66" value="complications" style="shape=partialRectangle;connectable=0;fillColor=none;top=0;left=0;bottom=0;right=0;align=left;spacingLeft=2;overflow=hidden;fontSize=11;sketch=1;hachureGap=4;jiggle=2;curveFitting=1;fontFamily=Architects Daughter;fontSource=https%3A%2F%2Ffonts.googleapis.com%2Fcss%3Ffamily%3DArchitects%2BDaughter;" vertex="1" parent="jbMghnIWZ9p5l0tNAsyb-64">
          <mxGeometry x="36" width="115" height="22" as="geometry">
            <mxRectangle width="115" height="22" as="alternateBounds" />
          </mxGeometry>
        </mxCell>
        <mxCell id="jbMghnIWZ9p5l0tNAsyb-67" style="shape=tableRow;horizontal=0;startSize=0;swimlaneHead=0;swimlaneBody=0;fillColor=none;collapsible=0;dropTarget=0;points=[[0,0.5],[1,0.5]];portConstraint=eastwest;top=0;left=0;right=0;bottom=0;sketch=1;hachureGap=4;jiggle=2;curveFitting=1;fontFamily=Architects Daughter;fontSource=https%3A%2F%2Ffonts.googleapis.com%2Fcss%3Ffamily%3DArchitects%2BDaughter;" vertex="1" parent="jbMghnIWZ9p5l0tNAsyb-45">
          <mxGeometry y="179" width="151" height="22" as="geometry" />
        </mxCell>
        <mxCell id="jbMghnIWZ9p5l0tNAsyb-68" value="date" style="shape=partialRectangle;connectable=0;fillColor=none;top=0;left=0;bottom=0;right=0;align=left;spacingLeft=2;overflow=hidden;fontSize=11;sketch=1;hachureGap=4;jiggle=2;curveFitting=1;fontFamily=Architects Daughter;fontSource=https%3A%2F%2Ffonts.googleapis.com%2Fcss%3Ffamily%3DArchitects%2BDaughter;" vertex="1" parent="jbMghnIWZ9p5l0tNAsyb-67">
          <mxGeometry width="36" height="22" as="geometry">
            <mxRectangle width="36" height="22" as="alternateBounds" />
          </mxGeometry>
        </mxCell>
        <mxCell id="jbMghnIWZ9p5l0tNAsyb-69" value="next_appointment" style="shape=partialRectangle;connectable=0;fillColor=none;top=0;left=0;bottom=0;right=0;align=left;spacingLeft=2;overflow=hidden;fontSize=11;sketch=1;hachureGap=4;jiggle=2;curveFitting=1;fontFamily=Architects Daughter;fontSource=https%3A%2F%2Ffonts.googleapis.com%2Fcss%3Ffamily%3DArchitects%2BDaughter;" vertex="1" parent="jbMghnIWZ9p5l0tNAsyb-67">
          <mxGeometry x="36" width="115" height="22" as="geometry">
            <mxRectangle width="115" height="22" as="alternateBounds" />
          </mxGeometry>
        </mxCell>
        <mxCell id="jbMghnIWZ9p5l0tNAsyb-70" value="Emergency_Cases" style="shape=table;startSize=25;container=1;collapsible=0;childLayout=tableLayout;fixedRows=1;rowLines=1;fontStyle=1;align=center;resizeLast=1;sketch=1;hachureGap=4;jiggle=2;curveFitting=1;fontFamily=Architects Daughter;fontSource=https%3A%2F%2Ffonts.googleapis.com%2Fcss%3Ffamily%3DArchitects%2BDaughter;" vertex="1" parent="1">
          <mxGeometry x="510" y="960" width="198" height="179" as="geometry" />
        </mxCell>
        <mxCell id="jbMghnIWZ9p5l0tNAsyb-71" style="shape=tableRow;horizontal=0;startSize=0;swimlaneHead=0;swimlaneBody=0;fillColor=none;collapsible=0;dropTarget=0;points=[[0,0.5],[1,0.5]];portConstraint=eastwest;top=0;left=0;right=0;bottom=0;sketch=1;hachureGap=4;jiggle=2;curveFitting=1;fontFamily=Architects Daughter;fontSource=https%3A%2F%2Ffonts.googleapis.com%2Fcss%3Ffamily%3DArchitects%2BDaughter;" vertex="1" parent="jbMghnIWZ9p5l0tNAsyb-70">
          <mxGeometry y="25" width="198" height="22" as="geometry" />
        </mxCell>
        <mxCell id="jbMghnIWZ9p5l0tNAsyb-72" value="int" style="shape=partialRectangle;connectable=0;fillColor=none;top=0;left=0;bottom=0;right=0;align=left;spacingLeft=2;overflow=hidden;fontSize=11;sketch=1;hachureGap=4;jiggle=2;curveFitting=1;fontFamily=Architects Daughter;fontSource=https%3A%2F%2Ffonts.googleapis.com%2Fcss%3Ffamily%3DArchitects%2BDaughter;" vertex="1" parent="jbMghnIWZ9p5l0tNAsyb-71">
          <mxGeometry width="54" height="22" as="geometry">
            <mxRectangle width="54" height="22" as="alternateBounds" />
          </mxGeometry>
        </mxCell>
        <mxCell id="jbMghnIWZ9p5l0tNAsyb-73" value="case_id" style="shape=partialRectangle;connectable=0;fillColor=none;top=0;left=0;bottom=0;right=0;align=left;spacingLeft=2;overflow=hidden;fontSize=11;sketch=1;hachureGap=4;jiggle=2;curveFitting=1;fontFamily=Architects Daughter;fontSource=https%3A%2F%2Ffonts.googleapis.com%2Fcss%3Ffamily%3DArchitects%2BDaughter;" vertex="1" parent="jbMghnIWZ9p5l0tNAsyb-71">
          <mxGeometry x="54" width="144" height="22" as="geometry">
            <mxRectangle width="144" height="22" as="alternateBounds" />
          </mxGeometry>
        </mxCell>
        <mxCell id="jbMghnIWZ9p5l0tNAsyb-74" style="shape=tableRow;horizontal=0;startSize=0;swimlaneHead=0;swimlaneBody=0;fillColor=none;collapsible=0;dropTarget=0;points=[[0,0.5],[1,0.5]];portConstraint=eastwest;top=0;left=0;right=0;bottom=0;sketch=1;hachureGap=4;jiggle=2;curveFitting=1;fontFamily=Architects Daughter;fontSource=https%3A%2F%2Ffonts.googleapis.com%2Fcss%3Ffamily%3DArchitects%2BDaughter;" vertex="1" parent="jbMghnIWZ9p5l0tNAsyb-70">
          <mxGeometry y="47" width="198" height="22" as="geometry" />
        </mxCell>
        <mxCell id="jbMghnIWZ9p5l0tNAsyb-75" value="int" style="shape=partialRectangle;connectable=0;fillColor=none;top=0;left=0;bottom=0;right=0;align=left;spacingLeft=2;overflow=hidden;fontSize=11;sketch=1;hachureGap=4;jiggle=2;curveFitting=1;fontFamily=Architects Daughter;fontSource=https%3A%2F%2Ffonts.googleapis.com%2Fcss%3Ffamily%3DArchitects%2BDaughter;" vertex="1" parent="jbMghnIWZ9p5l0tNAsyb-74">
          <mxGeometry width="54" height="22" as="geometry">
            <mxRectangle width="54" height="22" as="alternateBounds" />
          </mxGeometry>
        </mxCell>
        <mxCell id="jbMghnIWZ9p5l0tNAsyb-76" value="pregnancy_id" style="shape=partialRectangle;connectable=0;fillColor=none;top=0;left=0;bottom=0;right=0;align=left;spacingLeft=2;overflow=hidden;fontSize=11;sketch=1;hachureGap=4;jiggle=2;curveFitting=1;fontFamily=Architects Daughter;fontSource=https%3A%2F%2Ffonts.googleapis.com%2Fcss%3Ffamily%3DArchitects%2BDaughter;" vertex="1" parent="jbMghnIWZ9p5l0tNAsyb-74">
          <mxGeometry x="54" width="144" height="22" as="geometry">
            <mxRectangle width="144" height="22" as="alternateBounds" />
          </mxGeometry>
        </mxCell>
        <mxCell id="jbMghnIWZ9p5l0tNAsyb-77" style="shape=tableRow;horizontal=0;startSize=0;swimlaneHead=0;swimlaneBody=0;fillColor=none;collapsible=0;dropTarget=0;points=[[0,0.5],[1,0.5]];portConstraint=eastwest;top=0;left=0;right=0;bottom=0;sketch=1;hachureGap=4;jiggle=2;curveFitting=1;fontFamily=Architects Daughter;fontSource=https%3A%2F%2Ffonts.googleapis.com%2Fcss%3Ffamily%3DArchitects%2BDaughter;" vertex="1" parent="jbMghnIWZ9p5l0tNAsyb-70">
          <mxGeometry y="69" width="198" height="22" as="geometry" />
        </mxCell>
        <mxCell id="jbMghnIWZ9p5l0tNAsyb-78" value="int" style="shape=partialRectangle;connectable=0;fillColor=none;top=0;left=0;bottom=0;right=0;align=left;spacingLeft=2;overflow=hidden;fontSize=11;sketch=1;hachureGap=4;jiggle=2;curveFitting=1;fontFamily=Architects Daughter;fontSource=https%3A%2F%2Ffonts.googleapis.com%2Fcss%3Ffamily%3DArchitects%2BDaughter;" vertex="1" parent="jbMghnIWZ9p5l0tNAsyb-77">
          <mxGeometry width="54" height="22" as="geometry">
            <mxRectangle width="54" height="22" as="alternateBounds" />
          </mxGeometry>
        </mxCell>
        <mxCell id="jbMghnIWZ9p5l0tNAsyb-79" value="facility_id" style="shape=partialRectangle;connectable=0;fillColor=none;top=0;left=0;bottom=0;right=0;align=left;spacingLeft=2;overflow=hidden;fontSize=11;sketch=1;hachureGap=4;jiggle=2;curveFitting=1;fontFamily=Architects Daughter;fontSource=https%3A%2F%2Ffonts.googleapis.com%2Fcss%3Ffamily%3DArchitects%2BDaughter;" vertex="1" parent="jbMghnIWZ9p5l0tNAsyb-77">
          <mxGeometry x="54" width="144" height="22" as="geometry">
            <mxRectangle width="144" height="22" as="alternateBounds" />
          </mxGeometry>
        </mxCell>
        <mxCell id="jbMghnIWZ9p5l0tNAsyb-80" style="shape=tableRow;horizontal=0;startSize=0;swimlaneHead=0;swimlaneBody=0;fillColor=none;collapsible=0;dropTarget=0;points=[[0,0.5],[1,0.5]];portConstraint=eastwest;top=0;left=0;right=0;bottom=0;sketch=1;hachureGap=4;jiggle=2;curveFitting=1;fontFamily=Architects Daughter;fontSource=https%3A%2F%2Ffonts.googleapis.com%2Fcss%3Ffamily%3DArchitects%2BDaughter;" vertex="1" parent="jbMghnIWZ9p5l0tNAsyb-70">
          <mxGeometry y="91" width="198" height="22" as="geometry" />
        </mxCell>
        <mxCell id="jbMghnIWZ9p5l0tNAsyb-81" value="string" style="shape=partialRectangle;connectable=0;fillColor=none;top=0;left=0;bottom=0;right=0;align=left;spacingLeft=2;overflow=hidden;fontSize=11;sketch=1;hachureGap=4;jiggle=2;curveFitting=1;fontFamily=Architects Daughter;fontSource=https%3A%2F%2Ffonts.googleapis.com%2Fcss%3Ffamily%3DArchitects%2BDaughter;" vertex="1" parent="jbMghnIWZ9p5l0tNAsyb-80">
          <mxGeometry width="54" height="22" as="geometry">
            <mxRectangle width="54" height="22" as="alternateBounds" />
          </mxGeometry>
        </mxCell>
        <mxCell id="jbMghnIWZ9p5l0tNAsyb-82" value="emergency_type" style="shape=partialRectangle;connectable=0;fillColor=none;top=0;left=0;bottom=0;right=0;align=left;spacingLeft=2;overflow=hidden;fontSize=11;sketch=1;hachureGap=4;jiggle=2;curveFitting=1;fontFamily=Architects Daughter;fontSource=https%3A%2F%2Ffonts.googleapis.com%2Fcss%3Ffamily%3DArchitects%2BDaughter;" vertex="1" parent="jbMghnIWZ9p5l0tNAsyb-80">
          <mxGeometry x="54" width="144" height="22" as="geometry">
            <mxRectangle width="144" height="22" as="alternateBounds" />
          </mxGeometry>
        </mxCell>
        <mxCell id="jbMghnIWZ9p5l0tNAsyb-83" style="shape=tableRow;horizontal=0;startSize=0;swimlaneHead=0;swimlaneBody=0;fillColor=none;collapsible=0;dropTarget=0;points=[[0,0.5],[1,0.5]];portConstraint=eastwest;top=0;left=0;right=0;bottom=0;sketch=1;hachureGap=4;jiggle=2;curveFitting=1;fontFamily=Architects Daughter;fontSource=https%3A%2F%2Ffonts.googleapis.com%2Fcss%3Ffamily%3DArchitects%2BDaughter;" vertex="1" parent="jbMghnIWZ9p5l0tNAsyb-70">
          <mxGeometry y="113" width="198" height="22" as="geometry" />
        </mxCell>
        <mxCell id="jbMghnIWZ9p5l0tNAsyb-84" value="timestamp" style="shape=partialRectangle;connectable=0;fillColor=none;top=0;left=0;bottom=0;right=0;align=left;spacingLeft=2;overflow=hidden;fontSize=11;sketch=1;hachureGap=4;jiggle=2;curveFitting=1;fontFamily=Architects Daughter;fontSource=https%3A%2F%2Ffonts.googleapis.com%2Fcss%3Ffamily%3DArchitects%2BDaughter;" vertex="1" parent="jbMghnIWZ9p5l0tNAsyb-83">
          <mxGeometry width="54" height="22" as="geometry">
            <mxRectangle width="54" height="22" as="alternateBounds" />
          </mxGeometry>
        </mxCell>
        <mxCell id="jbMghnIWZ9p5l0tNAsyb-85" value="report_time" style="shape=partialRectangle;connectable=0;fillColor=none;top=0;left=0;bottom=0;right=0;align=left;spacingLeft=2;overflow=hidden;fontSize=11;sketch=1;hachureGap=4;jiggle=2;curveFitting=1;fontFamily=Architects Daughter;fontSource=https%3A%2F%2Ffonts.googleapis.com%2Fcss%3Ffamily%3DArchitects%2BDaughter;" vertex="1" parent="jbMghnIWZ9p5l0tNAsyb-83">
          <mxGeometry x="54" width="144" height="22" as="geometry">
            <mxRectangle width="144" height="22" as="alternateBounds" />
          </mxGeometry>
        </mxCell>
        <mxCell id="jbMghnIWZ9p5l0tNAsyb-86" style="shape=tableRow;horizontal=0;startSize=0;swimlaneHead=0;swimlaneBody=0;fillColor=none;collapsible=0;dropTarget=0;points=[[0,0.5],[1,0.5]];portConstraint=eastwest;top=0;left=0;right=0;bottom=0;sketch=1;hachureGap=4;jiggle=2;curveFitting=1;fontFamily=Architects Daughter;fontSource=https%3A%2F%2Ffonts.googleapis.com%2Fcss%3Ffamily%3DArchitects%2BDaughter;" vertex="1" parent="jbMghnIWZ9p5l0tNAsyb-70">
          <mxGeometry y="135" width="198" height="22" as="geometry" />
        </mxCell>
        <mxCell id="jbMghnIWZ9p5l0tNAsyb-87" value="int" style="shape=partialRectangle;connectable=0;fillColor=none;top=0;left=0;bottom=0;right=0;align=left;spacingLeft=2;overflow=hidden;fontSize=11;sketch=1;hachureGap=4;jiggle=2;curveFitting=1;fontFamily=Architects Daughter;fontSource=https%3A%2F%2Ffonts.googleapis.com%2Fcss%3Ffamily%3DArchitects%2BDaughter;" vertex="1" parent="jbMghnIWZ9p5l0tNAsyb-86">
          <mxGeometry width="54" height="22" as="geometry">
            <mxRectangle width="54" height="22" as="alternateBounds" />
          </mxGeometry>
        </mxCell>
        <mxCell id="jbMghnIWZ9p5l0tNAsyb-88" value="response_time_minutes" style="shape=partialRectangle;connectable=0;fillColor=none;top=0;left=0;bottom=0;right=0;align=left;spacingLeft=2;overflow=hidden;fontSize=11;sketch=1;hachureGap=4;jiggle=2;curveFitting=1;fontFamily=Architects Daughter;fontSource=https%3A%2F%2Ffonts.googleapis.com%2Fcss%3Ffamily%3DArchitects%2BDaughter;" vertex="1" parent="jbMghnIWZ9p5l0tNAsyb-86">
          <mxGeometry x="54" width="144" height="22" as="geometry">
            <mxRectangle width="144" height="22" as="alternateBounds" />
          </mxGeometry>
        </mxCell>
        <mxCell id="jbMghnIWZ9p5l0tNAsyb-89" style="shape=tableRow;horizontal=0;startSize=0;swimlaneHead=0;swimlaneBody=0;fillColor=none;collapsible=0;dropTarget=0;points=[[0,0.5],[1,0.5]];portConstraint=eastwest;top=0;left=0;right=0;bottom=0;sketch=1;hachureGap=4;jiggle=2;curveFitting=1;fontFamily=Architects Daughter;fontSource=https%3A%2F%2Ffonts.googleapis.com%2Fcss%3Ffamily%3DArchitects%2BDaughter;" vertex="1" parent="jbMghnIWZ9p5l0tNAsyb-70">
          <mxGeometry y="157" width="198" height="22" as="geometry" />
        </mxCell>
        <mxCell id="jbMghnIWZ9p5l0tNAsyb-90" value="string" style="shape=partialRectangle;connectable=0;fillColor=none;top=0;left=0;bottom=0;right=0;align=left;spacingLeft=2;overflow=hidden;fontSize=11;sketch=1;hachureGap=4;jiggle=2;curveFitting=1;fontFamily=Architects Daughter;fontSource=https%3A%2F%2Ffonts.googleapis.com%2Fcss%3Ffamily%3DArchitects%2BDaughter;" vertex="1" parent="jbMghnIWZ9p5l0tNAsyb-89">
          <mxGeometry width="54" height="22" as="geometry">
            <mxRectangle width="54" height="22" as="alternateBounds" />
          </mxGeometry>
        </mxCell>
        <mxCell id="jbMghnIWZ9p5l0tNAsyb-91" value="outcome" style="shape=partialRectangle;connectable=0;fillColor=none;top=0;left=0;bottom=0;right=0;align=left;spacingLeft=2;overflow=hidden;fontSize=11;sketch=1;hachureGap=4;jiggle=2;curveFitting=1;fontFamily=Architects Daughter;fontSource=https%3A%2F%2Ffonts.googleapis.com%2Fcss%3Ffamily%3DArchitects%2BDaughter;" vertex="1" parent="jbMghnIWZ9p5l0tNAsyb-89">
          <mxGeometry x="54" width="144" height="22" as="geometry">
            <mxRectangle width="144" height="22" as="alternateBounds" />
          </mxGeometry>
        </mxCell>
        <mxCell id="jbMghnIWZ9p5l0tNAsyb-92" value="Patients" style="shape=table;startSize=25;container=1;collapsible=0;childLayout=tableLayout;fixedRows=1;rowLines=1;fontStyle=1;align=center;resizeLast=1;sketch=1;hachureGap=4;jiggle=2;curveFitting=1;fontFamily=Architects Daughter;fontSource=https%3A%2F%2Ffonts.googleapis.com%2Fcss%3Ffamily%3DArchitects%2BDaughter;" vertex="1" parent="1">
          <mxGeometry x="593" y="381" width="146" height="179" as="geometry" />
        </mxCell>
        <mxCell id="jbMghnIWZ9p5l0tNAsyb-93" style="shape=tableRow;horizontal=0;startSize=0;swimlaneHead=0;swimlaneBody=0;fillColor=none;collapsible=0;dropTarget=0;points=[[0,0.5],[1,0.5]];portConstraint=eastwest;top=0;left=0;right=0;bottom=0;sketch=1;hachureGap=4;jiggle=2;curveFitting=1;fontFamily=Architects Daughter;fontSource=https%3A%2F%2Ffonts.googleapis.com%2Fcss%3Ffamily%3DArchitects%2BDaughter;" vertex="1" parent="jbMghnIWZ9p5l0tNAsyb-92">
          <mxGeometry y="25" width="146" height="22" as="geometry" />
        </mxCell>
        <mxCell id="jbMghnIWZ9p5l0tNAsyb-94" value="int" style="shape=partialRectangle;connectable=0;fillColor=none;top=0;left=0;bottom=0;right=0;align=left;spacingLeft=2;overflow=hidden;fontSize=11;sketch=1;hachureGap=4;jiggle=2;curveFitting=1;fontFamily=Architects Daughter;fontSource=https%3A%2F%2Ffonts.googleapis.com%2Fcss%3Ffamily%3DArchitects%2BDaughter;" vertex="1" parent="jbMghnIWZ9p5l0tNAsyb-93">
          <mxGeometry width="36" height="22" as="geometry">
            <mxRectangle width="36" height="22" as="alternateBounds" />
          </mxGeometry>
        </mxCell>
        <mxCell id="jbMghnIWZ9p5l0tNAsyb-95" value="patient_id" style="shape=partialRectangle;connectable=0;fillColor=none;top=0;left=0;bottom=0;right=0;align=left;spacingLeft=2;overflow=hidden;fontSize=11;sketch=1;hachureGap=4;jiggle=2;curveFitting=1;fontFamily=Architects Daughter;fontSource=https%3A%2F%2Ffonts.googleapis.com%2Fcss%3Ffamily%3DArchitects%2BDaughter;" vertex="1" parent="jbMghnIWZ9p5l0tNAsyb-93">
          <mxGeometry x="36" width="110" height="22" as="geometry">
            <mxRectangle width="110" height="22" as="alternateBounds" />
          </mxGeometry>
        </mxCell>
        <mxCell id="jbMghnIWZ9p5l0tNAsyb-96" style="shape=tableRow;horizontal=0;startSize=0;swimlaneHead=0;swimlaneBody=0;fillColor=none;collapsible=0;dropTarget=0;points=[[0,0.5],[1,0.5]];portConstraint=eastwest;top=0;left=0;right=0;bottom=0;sketch=1;hachureGap=4;jiggle=2;curveFitting=1;fontFamily=Architects Daughter;fontSource=https%3A%2F%2Ffonts.googleapis.com%2Fcss%3Ffamily%3DArchitects%2BDaughter;" vertex="1" parent="jbMghnIWZ9p5l0tNAsyb-92">
          <mxGeometry y="47" width="146" height="22" as="geometry" />
        </mxCell>
        <mxCell id="jbMghnIWZ9p5l0tNAsyb-97" value="string" style="shape=partialRectangle;connectable=0;fillColor=none;top=0;left=0;bottom=0;right=0;align=left;spacingLeft=2;overflow=hidden;fontSize=11;sketch=1;hachureGap=4;jiggle=2;curveFitting=1;fontFamily=Architects Daughter;fontSource=https%3A%2F%2Ffonts.googleapis.com%2Fcss%3Ffamily%3DArchitects%2BDaughter;" vertex="1" parent="jbMghnIWZ9p5l0tNAsyb-96">
          <mxGeometry width="36" height="22" as="geometry">
            <mxRectangle width="36" height="22" as="alternateBounds" />
          </mxGeometry>
        </mxCell>
        <mxCell id="jbMghnIWZ9p5l0tNAsyb-98" value="first_name" style="shape=partialRectangle;connectable=0;fillColor=none;top=0;left=0;bottom=0;right=0;align=left;spacingLeft=2;overflow=hidden;fontSize=11;sketch=1;hachureGap=4;jiggle=2;curveFitting=1;fontFamily=Architects Daughter;fontSource=https%3A%2F%2Ffonts.googleapis.com%2Fcss%3Ffamily%3DArchitects%2BDaughter;" vertex="1" parent="jbMghnIWZ9p5l0tNAsyb-96">
          <mxGeometry x="36" width="110" height="22" as="geometry">
            <mxRectangle width="110" height="22" as="alternateBounds" />
          </mxGeometry>
        </mxCell>
        <mxCell id="jbMghnIWZ9p5l0tNAsyb-99" style="shape=tableRow;horizontal=0;startSize=0;swimlaneHead=0;swimlaneBody=0;fillColor=none;collapsible=0;dropTarget=0;points=[[0,0.5],[1,0.5]];portConstraint=eastwest;top=0;left=0;right=0;bottom=0;sketch=1;hachureGap=4;jiggle=2;curveFitting=1;fontFamily=Architects Daughter;fontSource=https%3A%2F%2Ffonts.googleapis.com%2Fcss%3Ffamily%3DArchitects%2BDaughter;" vertex="1" parent="jbMghnIWZ9p5l0tNAsyb-92">
          <mxGeometry y="69" width="146" height="22" as="geometry" />
        </mxCell>
        <mxCell id="jbMghnIWZ9p5l0tNAsyb-100" value="string" style="shape=partialRectangle;connectable=0;fillColor=none;top=0;left=0;bottom=0;right=0;align=left;spacingLeft=2;overflow=hidden;fontSize=11;sketch=1;hachureGap=4;jiggle=2;curveFitting=1;fontFamily=Architects Daughter;fontSource=https%3A%2F%2Ffonts.googleapis.com%2Fcss%3Ffamily%3DArchitects%2BDaughter;" vertex="1" parent="jbMghnIWZ9p5l0tNAsyb-99">
          <mxGeometry width="36" height="22" as="geometry">
            <mxRectangle width="36" height="22" as="alternateBounds" />
          </mxGeometry>
        </mxCell>
        <mxCell id="jbMghnIWZ9p5l0tNAsyb-101" value="last_name" style="shape=partialRectangle;connectable=0;fillColor=none;top=0;left=0;bottom=0;right=0;align=left;spacingLeft=2;overflow=hidden;fontSize=11;sketch=1;hachureGap=4;jiggle=2;curveFitting=1;fontFamily=Architects Daughter;fontSource=https%3A%2F%2Ffonts.googleapis.com%2Fcss%3Ffamily%3DArchitects%2BDaughter;" vertex="1" parent="jbMghnIWZ9p5l0tNAsyb-99">
          <mxGeometry x="36" width="110" height="22" as="geometry">
            <mxRectangle width="110" height="22" as="alternateBounds" />
          </mxGeometry>
        </mxCell>
        <mxCell id="jbMghnIWZ9p5l0tNAsyb-102" style="shape=tableRow;horizontal=0;startSize=0;swimlaneHead=0;swimlaneBody=0;fillColor=none;collapsible=0;dropTarget=0;points=[[0,0.5],[1,0.5]];portConstraint=eastwest;top=0;left=0;right=0;bottom=0;sketch=1;hachureGap=4;jiggle=2;curveFitting=1;fontFamily=Architects Daughter;fontSource=https%3A%2F%2Ffonts.googleapis.com%2Fcss%3Ffamily%3DArchitects%2BDaughter;" vertex="1" parent="jbMghnIWZ9p5l0tNAsyb-92">
          <mxGeometry y="91" width="146" height="22" as="geometry" />
        </mxCell>
        <mxCell id="jbMghnIWZ9p5l0tNAsyb-103" value="date" style="shape=partialRectangle;connectable=0;fillColor=none;top=0;left=0;bottom=0;right=0;align=left;spacingLeft=2;overflow=hidden;fontSize=11;sketch=1;hachureGap=4;jiggle=2;curveFitting=1;fontFamily=Architects Daughter;fontSource=https%3A%2F%2Ffonts.googleapis.com%2Fcss%3Ffamily%3DArchitects%2BDaughter;" vertex="1" parent="jbMghnIWZ9p5l0tNAsyb-102">
          <mxGeometry width="36" height="22" as="geometry">
            <mxRectangle width="36" height="22" as="alternateBounds" />
          </mxGeometry>
        </mxCell>
        <mxCell id="jbMghnIWZ9p5l0tNAsyb-104" value="date_of_birth" style="shape=partialRectangle;connectable=0;fillColor=none;top=0;left=0;bottom=0;right=0;align=left;spacingLeft=2;overflow=hidden;fontSize=11;sketch=1;hachureGap=4;jiggle=2;curveFitting=1;fontFamily=Architects Daughter;fontSource=https%3A%2F%2Ffonts.googleapis.com%2Fcss%3Ffamily%3DArchitects%2BDaughter;" vertex="1" parent="jbMghnIWZ9p5l0tNAsyb-102">
          <mxGeometry x="36" width="110" height="22" as="geometry">
            <mxRectangle width="110" height="22" as="alternateBounds" />
          </mxGeometry>
        </mxCell>
        <mxCell id="jbMghnIWZ9p5l0tNAsyb-105" style="shape=tableRow;horizontal=0;startSize=0;swimlaneHead=0;swimlaneBody=0;fillColor=none;collapsible=0;dropTarget=0;points=[[0,0.5],[1,0.5]];portConstraint=eastwest;top=0;left=0;right=0;bottom=0;sketch=1;hachureGap=4;jiggle=2;curveFitting=1;fontFamily=Architects Daughter;fontSource=https%3A%2F%2Ffonts.googleapis.com%2Fcss%3Ffamily%3DArchitects%2BDaughter;" vertex="1" parent="jbMghnIWZ9p5l0tNAsyb-92">
          <mxGeometry y="113" width="146" height="22" as="geometry" />
        </mxCell>
        <mxCell id="jbMghnIWZ9p5l0tNAsyb-106" value="string" style="shape=partialRectangle;connectable=0;fillColor=none;top=0;left=0;bottom=0;right=0;align=left;spacingLeft=2;overflow=hidden;fontSize=11;sketch=1;hachureGap=4;jiggle=2;curveFitting=1;fontFamily=Architects Daughter;fontSource=https%3A%2F%2Ffonts.googleapis.com%2Fcss%3Ffamily%3DArchitects%2BDaughter;" vertex="1" parent="jbMghnIWZ9p5l0tNAsyb-105">
          <mxGeometry width="36" height="22" as="geometry">
            <mxRectangle width="36" height="22" as="alternateBounds" />
          </mxGeometry>
        </mxCell>
        <mxCell id="jbMghnIWZ9p5l0tNAsyb-107" value="district" style="shape=partialRectangle;connectable=0;fillColor=none;top=0;left=0;bottom=0;right=0;align=left;spacingLeft=2;overflow=hidden;fontSize=11;sketch=1;hachureGap=4;jiggle=2;curveFitting=1;fontFamily=Architects Daughter;fontSource=https%3A%2F%2Ffonts.googleapis.com%2Fcss%3Ffamily%3DArchitects%2BDaughter;" vertex="1" parent="jbMghnIWZ9p5l0tNAsyb-105">
          <mxGeometry x="36" width="110" height="22" as="geometry">
            <mxRectangle width="110" height="22" as="alternateBounds" />
          </mxGeometry>
        </mxCell>
        <mxCell id="jbMghnIWZ9p5l0tNAsyb-108" style="shape=tableRow;horizontal=0;startSize=0;swimlaneHead=0;swimlaneBody=0;fillColor=none;collapsible=0;dropTarget=0;points=[[0,0.5],[1,0.5]];portConstraint=eastwest;top=0;left=0;right=0;bottom=0;sketch=1;hachureGap=4;jiggle=2;curveFitting=1;fontFamily=Architects Daughter;fontSource=https%3A%2F%2Ffonts.googleapis.com%2Fcss%3Ffamily%3DArchitects%2BDaughter;" vertex="1" parent="jbMghnIWZ9p5l0tNAsyb-92">
          <mxGeometry y="135" width="146" height="22" as="geometry" />
        </mxCell>
        <mxCell id="jbMghnIWZ9p5l0tNAsyb-109" value="string" style="shape=partialRectangle;connectable=0;fillColor=none;top=0;left=0;bottom=0;right=0;align=left;spacingLeft=2;overflow=hidden;fontSize=11;sketch=1;hachureGap=4;jiggle=2;curveFitting=1;fontFamily=Architects Daughter;fontSource=https%3A%2F%2Ffonts.googleapis.com%2Fcss%3Ffamily%3DArchitects%2BDaughter;" vertex="1" parent="jbMghnIWZ9p5l0tNAsyb-108">
          <mxGeometry width="36" height="22" as="geometry">
            <mxRectangle width="36" height="22" as="alternateBounds" />
          </mxGeometry>
        </mxCell>
        <mxCell id="jbMghnIWZ9p5l0tNAsyb-110" value="contact_number" style="shape=partialRectangle;connectable=0;fillColor=none;top=0;left=0;bottom=0;right=0;align=left;spacingLeft=2;overflow=hidden;fontSize=11;sketch=1;hachureGap=4;jiggle=2;curveFitting=1;fontFamily=Architects Daughter;fontSource=https%3A%2F%2Ffonts.googleapis.com%2Fcss%3Ffamily%3DArchitects%2BDaughter;" vertex="1" parent="jbMghnIWZ9p5l0tNAsyb-108">
          <mxGeometry x="36" width="110" height="22" as="geometry">
            <mxRectangle width="110" height="22" as="alternateBounds" />
          </mxGeometry>
        </mxCell>
        <mxCell id="jbMghnIWZ9p5l0tNAsyb-111" style="shape=tableRow;horizontal=0;startSize=0;swimlaneHead=0;swimlaneBody=0;fillColor=none;collapsible=0;dropTarget=0;points=[[0,0.5],[1,0.5]];portConstraint=eastwest;top=0;left=0;right=0;bottom=0;sketch=1;hachureGap=4;jiggle=2;curveFitting=1;fontFamily=Architects Daughter;fontSource=https%3A%2F%2Ffonts.googleapis.com%2Fcss%3Ffamily%3DArchitects%2BDaughter;" vertex="1" parent="jbMghnIWZ9p5l0tNAsyb-92">
          <mxGeometry y="157" width="146" height="22" as="geometry" />
        </mxCell>
        <mxCell id="jbMghnIWZ9p5l0tNAsyb-112" value="date" style="shape=partialRectangle;connectable=0;fillColor=none;top=0;left=0;bottom=0;right=0;align=left;spacingLeft=2;overflow=hidden;fontSize=11;sketch=1;hachureGap=4;jiggle=2;curveFitting=1;fontFamily=Architects Daughter;fontSource=https%3A%2F%2Ffonts.googleapis.com%2Fcss%3Ffamily%3DArchitects%2BDaughter;" vertex="1" parent="jbMghnIWZ9p5l0tNAsyb-111">
          <mxGeometry width="36" height="22" as="geometry">
            <mxRectangle width="36" height="22" as="alternateBounds" />
          </mxGeometry>
        </mxCell>
        <mxCell id="jbMghnIWZ9p5l0tNAsyb-113" value="registration_date" style="shape=partialRectangle;connectable=0;fillColor=none;top=0;left=0;bottom=0;right=0;align=left;spacingLeft=2;overflow=hidden;fontSize=11;sketch=1;hachureGap=4;jiggle=2;curveFitting=1;fontFamily=Architects Daughter;fontSource=https%3A%2F%2Ffonts.googleapis.com%2Fcss%3Ffamily%3DArchitects%2BDaughter;" vertex="1" parent="jbMghnIWZ9p5l0tNAsyb-111">
          <mxGeometry x="36" width="110" height="22" as="geometry">
            <mxRectangle width="110" height="22" as="alternateBounds" />
          </mxGeometry>
        </mxCell>
        <mxCell id="jbMghnIWZ9p5l0tNAsyb-114" value="Pregnancies" style="shape=table;startSize=25;container=1;collapsible=0;childLayout=tableLayout;fixedRows=1;rowLines=1;fontStyle=1;align=center;resizeLast=1;sketch=1;hachureGap=4;jiggle=2;curveFitting=1;fontFamily=Architects Daughter;fontSource=https%3A%2F%2Ffonts.googleapis.com%2Fcss%3Ffamily%3DArchitects%2BDaughter;" vertex="1" parent="1">
          <mxGeometry x="578" y="671" width="178" height="179" as="geometry" />
        </mxCell>
        <mxCell id="jbMghnIWZ9p5l0tNAsyb-115" style="shape=tableRow;horizontal=0;startSize=0;swimlaneHead=0;swimlaneBody=0;fillColor=none;collapsible=0;dropTarget=0;points=[[0,0.5],[1,0.5]];portConstraint=eastwest;top=0;left=0;right=0;bottom=0;sketch=1;hachureGap=4;jiggle=2;curveFitting=1;fontFamily=Architects Daughter;fontSource=https%3A%2F%2Ffonts.googleapis.com%2Fcss%3Ffamily%3DArchitects%2BDaughter;" vertex="1" parent="jbMghnIWZ9p5l0tNAsyb-114">
          <mxGeometry y="25" width="178" height="22" as="geometry" />
        </mxCell>
        <mxCell id="jbMghnIWZ9p5l0tNAsyb-116" value="int" style="shape=partialRectangle;connectable=0;fillColor=none;top=0;left=0;bottom=0;right=0;align=left;spacingLeft=2;overflow=hidden;fontSize=11;sketch=1;hachureGap=4;jiggle=2;curveFitting=1;fontFamily=Architects Daughter;fontSource=https%3A%2F%2Ffonts.googleapis.com%2Fcss%3Ffamily%3DArchitects%2BDaughter;" vertex="1" parent="jbMghnIWZ9p5l0tNAsyb-115">
          <mxGeometry width="36" height="22" as="geometry">
            <mxRectangle width="36" height="22" as="alternateBounds" />
          </mxGeometry>
        </mxCell>
        <mxCell id="jbMghnIWZ9p5l0tNAsyb-117" value="pregnancy_id" style="shape=partialRectangle;connectable=0;fillColor=none;top=0;left=0;bottom=0;right=0;align=left;spacingLeft=2;overflow=hidden;fontSize=11;sketch=1;hachureGap=4;jiggle=2;curveFitting=1;fontFamily=Architects Daughter;fontSource=https%3A%2F%2Ffonts.googleapis.com%2Fcss%3Ffamily%3DArchitects%2BDaughter;" vertex="1" parent="jbMghnIWZ9p5l0tNAsyb-115">
          <mxGeometry x="36" width="142" height="22" as="geometry">
            <mxRectangle width="142" height="22" as="alternateBounds" />
          </mxGeometry>
        </mxCell>
        <mxCell id="jbMghnIWZ9p5l0tNAsyb-118" style="shape=tableRow;horizontal=0;startSize=0;swimlaneHead=0;swimlaneBody=0;fillColor=none;collapsible=0;dropTarget=0;points=[[0,0.5],[1,0.5]];portConstraint=eastwest;top=0;left=0;right=0;bottom=0;sketch=1;hachureGap=4;jiggle=2;curveFitting=1;fontFamily=Architects Daughter;fontSource=https%3A%2F%2Ffonts.googleapis.com%2Fcss%3Ffamily%3DArchitects%2BDaughter;" vertex="1" parent="jbMghnIWZ9p5l0tNAsyb-114">
          <mxGeometry y="47" width="178" height="22" as="geometry" />
        </mxCell>
        <mxCell id="jbMghnIWZ9p5l0tNAsyb-119" value="int" style="shape=partialRectangle;connectable=0;fillColor=none;top=0;left=0;bottom=0;right=0;align=left;spacingLeft=2;overflow=hidden;fontSize=11;sketch=1;hachureGap=4;jiggle=2;curveFitting=1;fontFamily=Architects Daughter;fontSource=https%3A%2F%2Ffonts.googleapis.com%2Fcss%3Ffamily%3DArchitects%2BDaughter;" vertex="1" parent="jbMghnIWZ9p5l0tNAsyb-118">
          <mxGeometry width="36" height="22" as="geometry">
            <mxRectangle width="36" height="22" as="alternateBounds" />
          </mxGeometry>
        </mxCell>
        <mxCell id="jbMghnIWZ9p5l0tNAsyb-120" value="patient_id" style="shape=partialRectangle;connectable=0;fillColor=none;top=0;left=0;bottom=0;right=0;align=left;spacingLeft=2;overflow=hidden;fontSize=11;sketch=1;hachureGap=4;jiggle=2;curveFitting=1;fontFamily=Architects Daughter;fontSource=https%3A%2F%2Ffonts.googleapis.com%2Fcss%3Ffamily%3DArchitects%2BDaughter;" vertex="1" parent="jbMghnIWZ9p5l0tNAsyb-118">
          <mxGeometry x="36" width="142" height="22" as="geometry">
            <mxRectangle width="142" height="22" as="alternateBounds" />
          </mxGeometry>
        </mxCell>
        <mxCell id="jbMghnIWZ9p5l0tNAsyb-121" style="shape=tableRow;horizontal=0;startSize=0;swimlaneHead=0;swimlaneBody=0;fillColor=none;collapsible=0;dropTarget=0;points=[[0,0.5],[1,0.5]];portConstraint=eastwest;top=0;left=0;right=0;bottom=0;sketch=1;hachureGap=4;jiggle=2;curveFitting=1;fontFamily=Architects Daughter;fontSource=https%3A%2F%2Ffonts.googleapis.com%2Fcss%3Ffamily%3DArchitects%2BDaughter;" vertex="1" parent="jbMghnIWZ9p5l0tNAsyb-114">
          <mxGeometry y="69" width="178" height="22" as="geometry" />
        </mxCell>
        <mxCell id="jbMghnIWZ9p5l0tNAsyb-122" value="date" style="shape=partialRectangle;connectable=0;fillColor=none;top=0;left=0;bottom=0;right=0;align=left;spacingLeft=2;overflow=hidden;fontSize=11;sketch=1;hachureGap=4;jiggle=2;curveFitting=1;fontFamily=Architects Daughter;fontSource=https%3A%2F%2Ffonts.googleapis.com%2Fcss%3Ffamily%3DArchitects%2BDaughter;" vertex="1" parent="jbMghnIWZ9p5l0tNAsyb-121">
          <mxGeometry width="36" height="22" as="geometry">
            <mxRectangle width="36" height="22" as="alternateBounds" />
          </mxGeometry>
        </mxCell>
        <mxCell id="jbMghnIWZ9p5l0tNAsyb-123" value="expected_delivery_date" style="shape=partialRectangle;connectable=0;fillColor=none;top=0;left=0;bottom=0;right=0;align=left;spacingLeft=2;overflow=hidden;fontSize=11;sketch=1;hachureGap=4;jiggle=2;curveFitting=1;fontFamily=Architects Daughter;fontSource=https%3A%2F%2Ffonts.googleapis.com%2Fcss%3Ffamily%3DArchitects%2BDaughter;" vertex="1" parent="jbMghnIWZ9p5l0tNAsyb-121">
          <mxGeometry x="36" width="142" height="22" as="geometry">
            <mxRectangle width="142" height="22" as="alternateBounds" />
          </mxGeometry>
        </mxCell>
        <mxCell id="jbMghnIWZ9p5l0tNAsyb-124" style="shape=tableRow;horizontal=0;startSize=0;swimlaneHead=0;swimlaneBody=0;fillColor=none;collapsible=0;dropTarget=0;points=[[0,0.5],[1,0.5]];portConstraint=eastwest;top=0;left=0;right=0;bottom=0;sketch=1;hachureGap=4;jiggle=2;curveFitting=1;fontFamily=Architects Daughter;fontSource=https%3A%2F%2Ffonts.googleapis.com%2Fcss%3Ffamily%3DArchitects%2BDaughter;" vertex="1" parent="jbMghnIWZ9p5l0tNAsyb-114">
          <mxGeometry y="91" width="178" height="22" as="geometry" />
        </mxCell>
        <mxCell id="jbMghnIWZ9p5l0tNAsyb-125" value="string" style="shape=partialRectangle;connectable=0;fillColor=none;top=0;left=0;bottom=0;right=0;align=left;spacingLeft=2;overflow=hidden;fontSize=11;sketch=1;hachureGap=4;jiggle=2;curveFitting=1;fontFamily=Architects Daughter;fontSource=https%3A%2F%2Ffonts.googleapis.com%2Fcss%3Ffamily%3DArchitects%2BDaughter;" vertex="1" parent="jbMghnIWZ9p5l0tNAsyb-124">
          <mxGeometry width="36" height="22" as="geometry">
            <mxRectangle width="36" height="22" as="alternateBounds" />
          </mxGeometry>
        </mxCell>
        <mxCell id="jbMghnIWZ9p5l0tNAsyb-126" value="risk_level" style="shape=partialRectangle;connectable=0;fillColor=none;top=0;left=0;bottom=0;right=0;align=left;spacingLeft=2;overflow=hidden;fontSize=11;sketch=1;hachureGap=4;jiggle=2;curveFitting=1;fontFamily=Architects Daughter;fontSource=https%3A%2F%2Ffonts.googleapis.com%2Fcss%3Ffamily%3DArchitects%2BDaughter;" vertex="1" parent="jbMghnIWZ9p5l0tNAsyb-124">
          <mxGeometry x="36" width="142" height="22" as="geometry">
            <mxRectangle width="142" height="22" as="alternateBounds" />
          </mxGeometry>
        </mxCell>
        <mxCell id="jbMghnIWZ9p5l0tNAsyb-127" style="shape=tableRow;horizontal=0;startSize=0;swimlaneHead=0;swimlaneBody=0;fillColor=none;collapsible=0;dropTarget=0;points=[[0,0.5],[1,0.5]];portConstraint=eastwest;top=0;left=0;right=0;bottom=0;sketch=1;hachureGap=4;jiggle=2;curveFitting=1;fontFamily=Architects Daughter;fontSource=https%3A%2F%2Ffonts.googleapis.com%2Fcss%3Ffamily%3DArchitects%2BDaughter;" vertex="1" parent="jbMghnIWZ9p5l0tNAsyb-114">
          <mxGeometry y="113" width="178" height="22" as="geometry" />
        </mxCell>
        <mxCell id="jbMghnIWZ9p5l0tNAsyb-128" value="date" style="shape=partialRectangle;connectable=0;fillColor=none;top=0;left=0;bottom=0;right=0;align=left;spacingLeft=2;overflow=hidden;fontSize=11;sketch=1;hachureGap=4;jiggle=2;curveFitting=1;fontFamily=Architects Daughter;fontSource=https%3A%2F%2Ffonts.googleapis.com%2Fcss%3Ffamily%3DArchitects%2BDaughter;" vertex="1" parent="jbMghnIWZ9p5l0tNAsyb-127">
          <mxGeometry width="36" height="22" as="geometry">
            <mxRectangle width="36" height="22" as="alternateBounds" />
          </mxGeometry>
        </mxCell>
        <mxCell id="jbMghnIWZ9p5l0tNAsyb-129" value="registration_date" style="shape=partialRectangle;connectable=0;fillColor=none;top=0;left=0;bottom=0;right=0;align=left;spacingLeft=2;overflow=hidden;fontSize=11;sketch=1;hachureGap=4;jiggle=2;curveFitting=1;fontFamily=Architects Daughter;fontSource=https%3A%2F%2Ffonts.googleapis.com%2Fcss%3Ffamily%3DArchitects%2BDaughter;" vertex="1" parent="jbMghnIWZ9p5l0tNAsyb-127">
          <mxGeometry x="36" width="142" height="22" as="geometry">
            <mxRectangle width="142" height="22" as="alternateBounds" />
          </mxGeometry>
        </mxCell>
        <mxCell id="jbMghnIWZ9p5l0tNAsyb-130" style="shape=tableRow;horizontal=0;startSize=0;swimlaneHead=0;swimlaneBody=0;fillColor=none;collapsible=0;dropTarget=0;points=[[0,0.5],[1,0.5]];portConstraint=eastwest;top=0;left=0;right=0;bottom=0;sketch=1;hachureGap=4;jiggle=2;curveFitting=1;fontFamily=Architects Daughter;fontSource=https%3A%2F%2Ffonts.googleapis.com%2Fcss%3Ffamily%3DArchitects%2BDaughter;" vertex="1" parent="jbMghnIWZ9p5l0tNAsyb-114">
          <mxGeometry y="135" width="178" height="22" as="geometry" />
        </mxCell>
        <mxCell id="jbMghnIWZ9p5l0tNAsyb-131" value="string" style="shape=partialRectangle;connectable=0;fillColor=none;top=0;left=0;bottom=0;right=0;align=left;spacingLeft=2;overflow=hidden;fontSize=11;sketch=1;hachureGap=4;jiggle=2;curveFitting=1;fontFamily=Architects Daughter;fontSource=https%3A%2F%2Ffonts.googleapis.com%2Fcss%3Ffamily%3DArchitects%2BDaughter;" vertex="1" parent="jbMghnIWZ9p5l0tNAsyb-130">
          <mxGeometry width="36" height="22" as="geometry">
            <mxRectangle width="36" height="22" as="alternateBounds" />
          </mxGeometry>
        </mxCell>
        <mxCell id="jbMghnIWZ9p5l0tNAsyb-132" value="outcome" style="shape=partialRectangle;connectable=0;fillColor=none;top=0;left=0;bottom=0;right=0;align=left;spacingLeft=2;overflow=hidden;fontSize=11;sketch=1;hachureGap=4;jiggle=2;curveFitting=1;fontFamily=Architects Daughter;fontSource=https%3A%2F%2Ffonts.googleapis.com%2Fcss%3Ffamily%3DArchitects%2BDaughter;" vertex="1" parent="jbMghnIWZ9p5l0tNAsyb-130">
          <mxGeometry x="36" width="142" height="22" as="geometry">
            <mxRectangle width="142" height="22" as="alternateBounds" />
          </mxGeometry>
        </mxCell>
        <mxCell id="jbMghnIWZ9p5l0tNAsyb-133" style="shape=tableRow;horizontal=0;startSize=0;swimlaneHead=0;swimlaneBody=0;fillColor=none;collapsible=0;dropTarget=0;points=[[0,0.5],[1,0.5]];portConstraint=eastwest;top=0;left=0;right=0;bottom=0;sketch=1;hachureGap=4;jiggle=2;curveFitting=1;fontFamily=Architects Daughter;fontSource=https%3A%2F%2Ffonts.googleapis.com%2Fcss%3Ffamily%3DArchitects%2BDaughter;" vertex="1" parent="jbMghnIWZ9p5l0tNAsyb-114">
          <mxGeometry y="157" width="178" height="22" as="geometry" />
        </mxCell>
        <mxCell id="jbMghnIWZ9p5l0tNAsyb-134" value="date" style="shape=partialRectangle;connectable=0;fillColor=none;top=0;left=0;bottom=0;right=0;align=left;spacingLeft=2;overflow=hidden;fontSize=11;sketch=1;hachureGap=4;jiggle=2;curveFitting=1;fontFamily=Architects Daughter;fontSource=https%3A%2F%2Ffonts.googleapis.com%2Fcss%3Ffamily%3DArchitects%2BDaughter;" vertex="1" parent="jbMghnIWZ9p5l0tNAsyb-133">
          <mxGeometry width="36" height="22" as="geometry">
            <mxRectangle width="36" height="22" as="alternateBounds" />
          </mxGeometry>
        </mxCell>
        <mxCell id="jbMghnIWZ9p5l0tNAsyb-135" value="delivery_date" style="shape=partialRectangle;connectable=0;fillColor=none;top=0;left=0;bottom=0;right=0;align=left;spacingLeft=2;overflow=hidden;fontSize=11;sketch=1;hachureGap=4;jiggle=2;curveFitting=1;fontFamily=Architects Daughter;fontSource=https%3A%2F%2Ffonts.googleapis.com%2Fcss%3Ffamily%3DArchitects%2BDaughter;" vertex="1" parent="jbMghnIWZ9p5l0tNAsyb-133">
          <mxGeometry x="36" width="142" height="22" as="geometry">
            <mxRectangle width="142" height="22" as="alternateBounds" />
          </mxGeometry>
        </mxCell>
        <mxCell id="jbMghnIWZ9p5l0tNAsyb-136" value="employs" style="curved=1;startArrow=ERmandOne;startSize=10;;endArrow=ERmany;endSize=10;;exitX=0;exitY=0.97;entryX=0.5;entryY=0;rounded=0;sketch=1;hachureGap=4;jiggle=2;curveFitting=1;fontFamily=Architects Daughter;fontSource=https%3A%2F%2Ffonts.googleapis.com%2Fcss%3Ffamily%3DArchitects%2BDaughter;" edge="1" parent="1" source="jbMghnIWZ9p5l0tNAsyb-1" target="jbMghnIWZ9p5l0tNAsyb-26">
          <mxGeometry relative="1" as="geometry">
            <Array as="points">
              <mxPoint x="99" y="621" />
            </Array>
          </mxGeometry>
        </mxCell>
        <mxCell id="jbMghnIWZ9p5l0tNAsyb-137" value="hosts" style="curved=1;startArrow=ERmandOne;startSize=10;;endArrow=ERmany;endSize=10;;exitX=0.67;exitY=1;entryX=0.43;entryY=0;rounded=0;sketch=1;hachureGap=4;jiggle=2;curveFitting=1;fontFamily=Architects Daughter;fontSource=https%3A%2F%2Ffonts.googleapis.com%2Fcss%3Ffamily%3DArchitects%2BDaughter;" edge="1" parent="1" source="jbMghnIWZ9p5l0tNAsyb-1" target="jbMghnIWZ9p5l0tNAsyb-45">
          <mxGeometry relative="1" as="geometry">
            <Array as="points">
              <mxPoint x="278" y="621" />
              <mxPoint x="278" y="899" />
            </Array>
          </mxGeometry>
        </mxCell>
        <mxCell id="jbMghnIWZ9p5l0tNAsyb-138" value="handles" style="curved=1;startArrow=ERmandOne;startSize=10;;endArrow=ERmany;endSize=10;;exitX=1;exitY=0.9;entryX=0;entryY=0.12;rounded=0;sketch=1;hachureGap=4;jiggle=2;curveFitting=1;fontFamily=Architects Daughter;fontSource=https%3A%2F%2Ffonts.googleapis.com%2Fcss%3Ffamily%3DArchitects%2BDaughter;" edge="1" parent="1" source="jbMghnIWZ9p5l0tNAsyb-1" target="jbMghnIWZ9p5l0tNAsyb-70">
          <mxGeometry relative="1" as="geometry">
            <Array as="points">
              <mxPoint x="393" y="621" />
              <mxPoint x="393" y="899" />
            </Array>
          </mxGeometry>
        </mxCell>
        <mxCell id="jbMghnIWZ9p5l0tNAsyb-139" value="conducts" style="curved=1;startArrow=ERmandOne;startSize=10;;endArrow=ERmany;endSize=10;;exitX=0.5;exitY=1;entryX=0;entryY=0.21;rounded=0;sketch=1;hachureGap=4;jiggle=2;curveFitting=1;fontFamily=Architects Daughter;fontSource=https%3A%2F%2Ffonts.googleapis.com%2Fcss%3Ffamily%3DArchitects%2BDaughter;" edge="1" parent="1" source="jbMghnIWZ9p5l0tNAsyb-26" target="jbMghnIWZ9p5l0tNAsyb-45">
          <mxGeometry relative="1" as="geometry">
            <Array as="points">
              <mxPoint x="99" y="899" />
            </Array>
          </mxGeometry>
        </mxCell>
        <mxCell id="jbMghnIWZ9p5l0tNAsyb-140" value="has" style="curved=1;startArrow=ERmandOne;startSize=10;;endArrow=ERmany;endSize=10;;exitX=0.5;exitY=1;entryX=0.5;entryY=0;rounded=0;sketch=1;hachureGap=4;jiggle=2;curveFitting=1;fontFamily=Architects Daughter;fontSource=https%3A%2F%2Ffonts.googleapis.com%2Fcss%3Ffamily%3DArchitects%2BDaughter;" edge="1" parent="1" source="jbMghnIWZ9p5l0tNAsyb-92" target="jbMghnIWZ9p5l0tNAsyb-114">
          <mxGeometry relative="1" as="geometry">
            <Array as="points" />
          </mxGeometry>
        </mxCell>
        <mxCell id="jbMghnIWZ9p5l0tNAsyb-141" value="includes" style="curved=1;startArrow=ERmandOne;startSize=10;;endArrow=ERmany;endSize=10;;exitX=0.03;exitY=1;entryX=1;entryY=0.27;rounded=0;sketch=1;hachureGap=4;jiggle=2;curveFitting=1;fontFamily=Architects Daughter;fontSource=https%3A%2F%2Ffonts.googleapis.com%2Fcss%3Ffamily%3DArchitects%2BDaughter;" edge="1" parent="1" source="jbMghnIWZ9p5l0tNAsyb-114" target="jbMghnIWZ9p5l0tNAsyb-45">
          <mxGeometry relative="1" as="geometry">
            <Array as="points">
              <mxPoint x="537" y="899" />
            </Array>
          </mxGeometry>
        </mxCell>
        <mxCell id="jbMghnIWZ9p5l0tNAsyb-142" value="may_have" style="curved=1;startArrow=ERmandOne;startSize=10;;endArrow=ERmany;endSize=10;;exitX=0.5;exitY=1;entryX=0.67;entryY=0;rounded=0;sketch=1;hachureGap=4;jiggle=2;curveFitting=1;fontFamily=Architects Daughter;fontSource=https%3A%2F%2Ffonts.googleapis.com%2Fcss%3Ffamily%3DArchitects%2BDaughter;" edge="1" parent="1" source="jbMghnIWZ9p5l0tNAsyb-114" target="jbMghnIWZ9p5l0tNAsyb-70">
          <mxGeometry relative="1" as="geometry">
            <Array as="points">
              <mxPoint x="666" y="899" />
            </Array>
          </mxGeometry>
        </mxCell>
      </root>
    </mxGraphModel>
  </diagram>
</mxfile>
